<svg version="1.1" id="Layer_1" xmlns="http://www.w3.org/2000/svg" xmlns:xlink="http://www.w3.org/1999/xlink" x="0px" y="0px" viewBox="0 0 512 512" fill="#bebfc0" xml:space="preserve">
<g>
	<path class="st0" d="M511.6,174.2c-0.1-0.6-0.2-1.2-0.4-1.8c-0.1-0.4-0.2-0.7-0.3-1.1c-0.2-0.5-0.4-1.1-0.6-1.6
		c-0.2-0.4-0.3-0.7-0.5-1.1c-0.2-0.5-0.5-1-0.8-1.5c-0.2-0.4-0.4-0.7-0.6-1c-0.3-0.5-0.6-0.9-0.9-1.3c-0.2-0.3-0.5-0.6-0.8-0.9
		c-0.3-0.4-0.7-0.8-1.1-1.2c-0.3-0.3-0.6-0.6-0.9-0.9c-0.4-0.4-0.8-0.7-1.2-1c-0.3-0.3-0.7-0.5-1-0.8l-0.4-0.3l-234-156
		c-7.4-4.9-17-4.9-24.4,0l-234,156L9.4,160c-0.3,0.2-0.7,0.5-1,0.8c-0.4,0.3-0.8,0.7-1.2,1c-0.3,0.3-0.6,0.6-0.9,0.9
		c-0.4,0.4-0.7,0.8-1.1,1.2c-0.3,0.3-0.5,0.6-0.8,1c-0.3,0.4-0.6,0.9-0.9,1.3c-0.2,0.3-0.4,0.7-0.6,1c-0.3,0.5-0.5,1-0.7,1.4
		c-0.2,0.4-0.3,0.7-0.5,1.1c-0.2,0.5-0.4,1.1-0.6,1.6c-0.1,0.4-0.2,0.7-0.3,1c-0.2,0.6-0.3,1.2-0.4,1.8c-0.1,0.3-0.1,0.6-0.2,1
		C0.1,176,0,177,0,178v156c0,1,0.1,1.9,0.2,2.9c0,0.3,0.1,0.6,0.2,1c0.1,0.6,0.2,1.2,0.4,1.9c0.1,0.3,0.2,0.7,0.3,1.1
		c0.2,0.6,0.3,1.1,0.6,1.6c0.1,0.3,0.3,0.7,0.5,1c0.2,0.5,0.5,1,0.8,1.5c0.2,0.3,0.4,0.7,0.6,1c0.3,0.5,0.6,0.9,1,1.3
		c0.2,0.3,0.5,0.6,0.8,1c0.4,0.4,0.7,0.8,1.1,1.2c0.3,0.3,0.6,0.6,0.9,0.8c0.4,0.3,0.8,0.7,1.2,1c0.3,0.3,0.7,0.5,1,0.8l0.3,0.3
		l233.9,156.1c3.7,2.5,7.9,3.7,12.2,3.7c4.3,0,8.5-1.2,12.2-3.7l234-156l0.4-0.3c0.3-0.2,0.7-0.5,1-0.8c0.4-0.3,0.8-0.7,1.2-1
		c0.3-0.3,0.6-0.6,0.9-0.9c0.4-0.4,0.7-0.8,1.1-1.2c0.3-0.3,0.5-0.6,0.8-1c0.3-0.4,0.6-0.9,0.9-1.3c0.2-0.3,0.4-0.7,0.6-1
		c0.3-0.5,0.5-1,0.8-1.5c0.2-0.4,0.3-0.7,0.5-1.1c0.2-0.5,0.4-1.1,0.6-1.6c0.1-0.4,0.2-0.7,0.3-1.1c0.2-0.6,0.3-1.2,0.4-1.8
		c0.1-0.3,0.1-0.6,0.2-1c0.1-1,0.2-1.9,0.2-2.9V178c0-1-0.1-1.9-0.2-2.9C511.8,174.8,511.6,174.5,511.6,174.2L511.6,174.2z M256,308
		l-77.8-52l77.8-52l77.8,52L256,308z M234,165.7l-95.4,63.8l-77-51.5L234,63.1V165.7z M99,256l-55,36.8v-73.6L99,256z M138.6,282.5
		l95.4,63.8v102.6L61.6,334L138.6,282.5L138.6,282.5z M278,346.3l95.4-63.8l77,51.5L278,448.9V346.3z M412.9,256l55-36.8v73.6
		L412.9,256L412.9,256z M373.4,229.5L278,165.7V63.1L450.4,178L373.4,229.5z"/>
</g>
</svg>
