<?xml version="1.0" standalone="no"?>
<svg xmlns="http://www.w3.org/2000/svg" version="1.2" baseProfile="tiny" width="256" height="120" viewBox="0 0 256 120">
<rect x="0" y="0" width="256" height="120" id="0" fill="rgb(110,82,96)" fill-opacity="1" />
<ellipse cx="181" cy="66" rx="59" ry="26" id="1" fill="rgb(168,197,176)" fill-opacity="0.854902" />
<ellipse cx="95" cy="87" rx="33" ry="43" id="2" fill="rgb(185,61,12)" fill-opacity="0.854902" />
<ellipse cx="26" cy="14" rx="103" ry="27" id="3" fill="rgb(49,17,62)" fill-opacity="0.854902" />
<ellipse cx="239" cy="22" rx="20" ry="56" id="4" fill="rgb(32,121,152)" fill-opacity="0.854902" />
<ellipse cx="164" cy="29" rx="25" ry="31" id="5" fill="rgb(172,191,161)" fill-opacity="0.854902" />
<ellipse cx="94" cy="119" rx="63" ry="38" id="6" fill="rgb(137,28,25)" fill-opacity="0.854902" />
<ellipse cx="4" cy="49" rx="26" ry="47" id="7" fill="rgb(47,10,64)" fill-opacity="0.854902" />
<ellipse cx="224" cy="5" rx="35" ry="26" id="8" fill="rgb(44,35,90)" fill-opacity="0.854902" />
<ellipse cx="92" cy="34" rx="8" ry="12" id="9" fill="rgb(225,142,105)" fill-opacity="0.854902" />
<ellipse cx="94" cy="60" rx="25" ry="12" id="10" fill="rgb(249,133,5)" fill-opacity="0.854902" />
<ellipse cx="251" cy="103" rx="29" ry="29" id="11" fill="rgb(49,28,90)" fill-opacity="0.854902" />
<ellipse cx="46" cy="85" rx="18" ry="7" id="12" fill="rgb(184,184,180)" fill-opacity="0.854902" />
<ellipse cx="167" cy="76" rx="45" ry="15" id="13" fill="rgb(202,215,165)" fill-opacity="0.854902" />
<polygon points="192,45 236,81 252,38" id="14" fill="rgb(72,174,180)" fill-opacity="0.854902" />
<ellipse cx="130" cy="41" rx="15" ry="28" id="15" fill="rgb(91,52,109)" fill-opacity="0.854902" />
<ellipse cx="197" cy="44" rx="11" ry="17" id="16" fill="rgb(124,82,127)" fill-opacity="0.854902" />
<polygon points="53,79 70,46 33,0" id="17" fill="rgb(97,102,133)" fill-opacity="0.854902" />
<ellipse cx="112" cy="16" rx="13" ry="35" id="18" fill="rgb(58,13,70)" fill-opacity="0.854902" />
<polygon points="162,18 168,50 175,20" id="19" fill="rgb(29,164,170)" fill-opacity="0.854902" />
<polygon points="29,0 14,30 47,8" id="20" fill="rgb(69,89,113)" fill-opacity="0.854902" />
<polygon points="173,84 221,84 246,49" id="21" fill="rgb(139,237,207)" fill-opacity="0.854902" />
<polygon points="117,81 19,113 91,70" id="22" fill="rgb(147,45,53)" fill-opacity="0.854902" />
<ellipse cx="69" cy="0" rx="26" ry="31" id="23" fill="rgb(41,0,46)" fill-opacity="0.854902" />
<polygon points="115,51 119,0 139,0" id="24" fill="rgb(73,37,86)" fill-opacity="0.854902" />
<ellipse cx="178" cy="94" rx="40" ry="5" id="25" fill="rgb(130,59,79)" fill-opacity="0.854902" />
<polygon points="68,60 100,59 65,86" id="26" fill="rgb(253,146,4)" fill-opacity="0.854902" />
<polygon points="125,67 54,120 121,95" id="27" fill="rgb(119,7,13)" fill-opacity="0.854902" />
<polygon points="207,52 196,0 219,5" id="28" fill="rgb(54,9,70)" fill-opacity="0.854902" />
<polygon points="137,67 168,0 156,62" id="29" fill="rgb(185,137,133)" fill-opacity="0.854902" />
<polygon points="158,97 227,84 129,125" id="30" fill="rgb(113,58,96)" fill-opacity="0.854902" />
<ellipse cx="0" cy="100" rx="31" ry="19" id="31" fill="rgb(84,53,107)" fill-opacity="0.854902" />
<polygon points="256,22 248,0 192,52" id="32" fill="rgb(51,77,121)" fill-opacity="0.854902" />
<polygon points="256,63 249,120 196,111" id="33" fill="rgb(62,39,95)" fill-opacity="0.854902" />
<ellipse cx="136" cy="96" rx="17" ry="5" id="34" fill="rgb(191,66,12)" fill-opacity="0.854902" />
<polygon points="153,23 129,32 160,44" id="35" fill="rgb(191,180,144)" fill-opacity="0.854902" />
<ellipse cx="117" cy="119" rx="25" ry="6" id="36" fill="rgb(59,0,52)" fill-opacity="0.854902" />
<polygon points="0,67 21,0 0,0" id="37" fill="rgb(35,0,40)" fill-opacity="0.854902" />
<polygon points="47,50 32,39 7,103" id="38" fill="rgb(77,40,96)" fill-opacity="0.854902" />
<polygon points="229,39 247,56 252,37" id="39" fill="rgb(26,192,189)" fill-opacity="0.854902" />
<polygon points="121,110 78,113 138,91" id="40" fill="rgb(199,73,12)" fill-opacity="0.854902" />
<ellipse cx="189" cy="4" rx="9" ry="7" id="41" fill="rgb(51,3,68)" fill-opacity="0.854902" />
<ellipse cx="76" cy="96" rx="8" ry="8" id="42" fill="rgb(210,100,46)" fill-opacity="0.854902" />
<polygon points="193,35 175,55 179,5" id="43" fill="rgb(198,229,187)" fill-opacity="0.854902" />
<ellipse cx="43" cy="119" rx="14" ry="23" id="44" fill="rgb(145,31,13)" fill-opacity="0.854902" />
<polygon points="77,94 82,80 59,101" id="45" fill="rgb(153,86,103)" fill-opacity="0.854902" />
<polygon points="130,20 153,56 123,71" id="46" fill="rgb(100,63,119)" fill-opacity="0.854902" />
<ellipse cx="169" cy="43" rx="6" ry="7" id="47" fill="rgb(39,177,185)" fill-opacity="0.854902" />
<polygon points="241,85 157,120 136,115" id="48" fill="rgb(111,68,101)" fill-opacity="0.854902" />
<ellipse cx="54" cy="110" rx="18" ry="10" id="49" fill="rgb(119,10,11)" fill-opacity="0.854902" />
<ellipse cx="166" cy="66" rx="14" ry="14" id="50" fill="rgb(208,208,151)" fill-opacity="0.854902" />
<ellipse cx="222" cy="43" rx="9" ry="12" id="51" fill="rgb(57,126,152)" fill-opacity="0.854902" />
<ellipse cx="239" cy="50" rx="7" ry="7" id="52" fill="rgb(79,227,200)" fill-opacity="0.854902" />
<polygon points="38,65 57,53 61,72" id="53" fill="rgb(122,127,149)" fill-opacity="0.854902" />
<polygon points="119,0 39,0 111,18" id="54" fill="rgb(36,0,42)" fill-opacity="0.854902" />
<polygon points="123,70 191,61 126,88" id="55" fill="rgb(222,204,160)" fill-opacity="0.854902" />
<polygon points="163,37 158,24 155,38" id="56" fill="rgb(244,103,66)" fill-opacity="0.854902" />
<polygon points="45,37 30,16 0,64" id="57" fill="rgb(52,10,65)" fill-opacity="0.854902" />
<polygon points="180,39 179,31 157,41" id="58" fill="rgb(72,175,181)" fill-opacity="0.854902" />
<ellipse cx="217" cy="119" rx="4" ry="3" id="59" fill="rgb(6,204,193)" fill-opacity="0.854902" />
<polygon points="158,73 168,86 192,74" id="60" fill="rgb(159,201,153)" fill-opacity="0.854902" />
<polygon points="235,64 216,78 188,80" id="61" fill="rgb(184,243,213)" fill-opacity="0.854902" />
<polygon points="102,109 92,107 90,120" id="62" fill="rgb(230,96,9)" fill-opacity="0.854902" />
<polygon points="0,85 43,66 44,79" id="63" fill="rgb(82,32,95)" fill-opacity="0.854902" />
<polygon points="29,107 30,120 37,99" id="64" fill="rgb(229,125,23)" fill-opacity="0.854902" />
<polygon points="120,54 101,113 121,92" id="65" fill="rgb(121,8,15)" fill-opacity="0.854902" />
<polygon points="151,0 138,31 166,1" id="66" fill="rgb(167,150,115)" fill-opacity="0.854902" />
<ellipse cx="193" cy="20" rx="7" ry="6" id="67" fill="rgb(121,66,115)" fill-opacity="0.854902" />
<polygon points="95,45 142,40 127,55" id="68" fill="rgb(80,30,95)" fill-opacity="0.854902" />
<polygon points="54,54 55,37 83,38" id="69" fill="rgb(85,122,140)" fill-opacity="0.854902" />
<ellipse cx="255" cy="98" rx="15" ry="39" id="70" fill="rgb(51,29,89)" fill-opacity="0.854902" />
<polygon points="145,40 148,23 173,71" id="71" fill="rgb(208,204,156)" fill-opacity="0.854902" />
<ellipse cx="253" cy="44" rx="4" ry="14" id="72" fill="rgb(1,127,155)" fill-opacity="0.854902" />
<ellipse cx="71" cy="100" rx="12" ry="3" id="73" fill="rgb(232,104,12)" fill-opacity="0.854902" />
<polygon points="234,1 256,36 255,-29" id="74" fill="rgb(30,76,117)" fill-opacity="0.854902" />
<polygon points="91,49 102,37 97,22" id="75" fill="rgb(172,69,79)" fill-opacity="0.854902" />
<polygon points="70,57 57,55 85,41" id="76" fill="rgb(80,21,89)" fill-opacity="0.854902" />
<polygon points="57,91 31,91 35,101" id="77" fill="rgb(167,68,92)" fill-opacity="0.854902" />
<ellipse cx="202" cy="108" rx="18" ry="7" id="78" fill="rgb(91,59,103)" fill-opacity="0.854902" />
<ellipse cx="136" cy="31" rx="5" ry="4" id="79" fill="rgb(94,148,156)" fill-opacity="0.854902" />
<polygon points="212,45 213,20 194,52" id="80" fill="rgb(78,38,99)" fill-opacity="0.854902" />
<polygon points="170,0 175,0 189,28" id="81" fill="rgb(208,244,193)" fill-opacity="0.854902" />
<ellipse cx="202" cy="5" rx="9" ry="15" id="82" fill="rgb(46,1,59)" fill-opacity="0.854902" />
<polygon points="84,72 104,71 67,87" id="83" fill="rgb(124,10,34)" fill-opacity="0.854902" />
<polygon points="191,26 197,62 184,51" id="84" fill="rgb(146,120,144)" fill-opacity="0.854902" />
<ellipse cx="144" cy="79" rx="19" ry="10" id="85" fill="rgb(216,204,170)" fill-opacity="0.854902" />
<polygon points="126,104 157,93 138,116" id="86" fill="rgb(121,17,17)" fill-opacity="0.854902" />
</svg>