<?xml version="1.0" standalone="no"?>
<svg xmlns="http://www.w3.org/2000/svg" version="1.2" baseProfile="tiny" width="256" height="256" viewBox="0 0 256 256">
<rect x="0" y="0" width="256" height="256" id="0" fill="rgb(143,58,69)" fill-opacity="1" />
<ellipse cx="127" cy="214" rx="92" ry="47" id="1" fill="rgb(255,155,78)" fill-opacity="0.839216" />
<ellipse cx="223" cy="99" rx="54" ry="61" id="2" fill="rgb(59,12,70)" fill-opacity="0.839216" />
<ellipse cx="38" cy="99" rx="47" ry="61" id="3" fill="rgb(58,13,70)" fill-opacity="0.839216" />
<ellipse cx="127" cy="78" rx="29" ry="66" id="4" fill="rgb(248,83,67)" fill-opacity="0.839216" />
<ellipse cx="45" cy="190" rx="16" ry="34" id="5" fill="rgb(252,165,91)" fill-opacity="0.839216" />
<ellipse cx="13" cy="214" rx="16" ry="146" id="6" fill="rgb(49,10,75)" fill-opacity="0.839216" />
<ellipse cx="75" cy="27" rx="32" ry="33" id="7" fill="rgb(85,0,49)" fill-opacity="0.839216" />
<ellipse cx="250" cy="255" rx="27" ry="169" id="8" fill="rgb(50,12,75)" fill-opacity="0.839216" />
<polygon points="191,109 230,189 207,227" id="9" fill="rgb(235,135,85)" fill-opacity="0.839216" />
<ellipse cx="179" cy="25" rx="32" ry="37" id="10" fill="rgb(89,0,48)" fill-opacity="0.839216" />
<ellipse cx="83" cy="151" rx="17" ry="10" id="11" fill="rgb(252,224,142)" fill-opacity="0.839216" />
<polygon points="126,159 90,97 105,195" id="12" fill="rgb(71,0,54)" fill-opacity="0.839216" />
<polygon points="200,0 256,0 256,90" id="13" fill="rgb(199,45,41)" fill-opacity="0.839216" />
<ellipse cx="147" cy="159" rx="13" ry="30" id="14" fill="rgb(99,4,56)" fill-opacity="0.839216" />
<ellipse cx="172" cy="152" rx="18" ry="11" id="15" fill="rgb(247,207,129)" fill-opacity="0.839216" />
<polygon points="56,124 65,111 95,113" id="16" fill="rgb(255,225,112)" fill-opacity="0.839216" />
<ellipse cx="128" cy="80" rx="44" ry="36" id="17" fill="rgb(228,30,58)" fill-opacity="0.839216" />
<polygon points="149,119 128,155 100,113" id="18" fill="rgb(255,221,96)" fill-opacity="0.839216" />
<ellipse cx="6" cy="28" rx="21" ry="44" id="19" fill="rgb(195,47,37)" fill-opacity="0.839216" />
<ellipse cx="179" cy="115" rx="14" ry="4" id="20" fill="rgb(255,247,125)" fill-opacity="0.839216" />
<polygon points="64,145 38,159 54,129" id="21" fill="rgb(223,76,73)" fill-opacity="0.839216" />
<polygon points="185,129 157,113 126,158" id="22" fill="rgb(37,0,52)" fill-opacity="0.839216" />
<ellipse cx="191" cy="188" rx="37" ry="12" id="23" fill="rgb(252,195,88)" fill-opacity="0.839216" />
<ellipse cx="128" cy="23" rx="9" ry="20" id="24" fill="rgb(255,215,100)" fill-opacity="0.839216" />
<ellipse cx="126" cy="240" rx="22" ry="14" id="25" fill="rgb(217,50,56)" fill-opacity="0.839216" />
<ellipse cx="84" cy="209" rx="16" ry="45" id="26" fill="rgb(254,180,85)" fill-opacity="0.839216" />
<ellipse cx="170" cy="232" rx="19" ry="69" id="27" fill="rgb(255,175,80)" fill-opacity="0.839216" />
<polygon points="256,158 194,256 256,256" id="28" fill="rgb(60,19,77)" fill-opacity="0.839216" />
<ellipse cx="33" cy="241" rx="15" ry="21" id="29" fill="rgb(60,15,75)" fill-opacity="0.839216" />
<ellipse cx="44" cy="74" rx="25" ry="43" id="30" fill="rgb(42,8,72)" fill-opacity="0.839216" />
<polygon points="159,113 256,94 207,14" id="31" fill="rgb(47,8,71)" fill-opacity="0.839216" />
<polygon points="117,178 89,162 104,198" id="32" fill="rgb(168,12,53)" fill-opacity="0.839216" />
<polygon points="36,164 24,192 156,235" id="33" fill="rgb(250,183,92)" fill-opacity="0.839216" />
<ellipse cx="90" cy="129" rx="18" ry="11" id="34" fill="rgb(40,2,59)" fill-opacity="0.839216" />
<polygon points="189,176 195,124 209,153" id="35" fill="rgb(115,16,63)" fill-opacity="0.839216" />
<polygon points="55,0 0,88 0,0" id="36" fill="rgb(192,50,43)" fill-opacity="0.839216" />
<polygon points="59,174 79,171 37,131" id="37" fill="rgb(100,5,53)" fill-opacity="0.839216" />
<polygon points="126,219 146,203 108,203" id="38" fill="rgb(209,37,47)" fill-opacity="0.839216" />
<polygon points="51,242 68,256 157,238" id="39" fill="rgb(255,137,76)" fill-opacity="0.839216" />
<ellipse cx="86" cy="0" rx="34" ry="42" id="40" fill="rgb(103,0,49)" fill-opacity="0.839216" />
<ellipse cx="229" cy="126" rx="20" ry="43" id="41" fill="rgb(47,8,70)" fill-opacity="0.839216" />
<polygon points="199,0 175,79 128,0" id="42" fill="rgb(99,1,49)" fill-opacity="0.839216" />
<polygon points="70,254 23,192 44,198" id="43" fill="rgb(239,96,69)" fill-opacity="0.839216" />
<polygon points="162,170 135,173 149,198" id="44" fill="rgb(188,14,53)" fill-opacity="0.839216" />
<polygon points="105,31 75,92 66,27" id="45" fill="rgb(84,5,52)" fill-opacity="0.839216" />
<polygon points="229,188 168,226 209,152" id="46" fill="rgb(249,178,89)" fill-opacity="0.839216" />
<polygon points="253,144 220,168 230,188" id="47" fill="rgb(103,5,56)" fill-opacity="0.839216" />
<polygon points="186,256 229,192 212,202" id="48" fill="rgb(237,76,61)" fill-opacity="0.839216" />
<polygon points="42,24 12,69 100,116" id="49" fill="rgb(48,9,71)" fill-opacity="0.839216" />
<ellipse cx="30" cy="255" rx="14" ry="43" id="50" fill="rgb(67,20,75)" fill-opacity="0.839216" />
<polygon points="6,153 38,161 23,187" id="51" fill="rgb(100,4,57)" fill-opacity="0.839216" />
<polygon points="190,118 157,141 201,136" id="52" fill="rgb(79,28,75)" fill-opacity="0.839216" />
<ellipse cx="23" cy="118" rx="30" ry="36" id="53" fill="rgb(43,9,71)" fill-opacity="0.839216" />
<ellipse cx="85" cy="242" rx="17" ry="20" id="54" fill="rgb(255,159,79)" fill-opacity="0.839216" />
<ellipse cx="144" cy="162" rx="15" ry="13" id="55" fill="rgb(99,8,56)" fill-opacity="0.839216" />
<polygon points="79,181 75,161 98,159" id="56" fill="rgb(249,134,87)" fill-opacity="0.839216" />
<polygon points="135,226 151,236 95,237" id="57" fill="rgb(189,15,46)" fill-opacity="0.839216" />
<ellipse cx="44" cy="166" rx="4" ry="19" id="58" fill="rgb(238,165,98)" fill-opacity="0.839216" />
<polygon points="42,152 52,143 67,102" id="59" fill="rgb(230,70,80)" fill-opacity="0.839216" />
<polygon points="74,88 175,82 146,30" id="60" fill="rgb(231,38,63)" fill-opacity="0.839216" />
<polygon points="62,255 46,256 12,192" id="61" fill="rgb(85,6,59)" fill-opacity="0.839216" />
<polygon points="141,198 143,229 223,176" id="62" fill="rgb(250,187,87)" fill-opacity="0.839216" />
<polygon points="107,198 145,196 127,180" id="63" fill="rgb(254,194,100)" fill-opacity="0.839216" />
<polygon points="35,187 107,240 74,256" id="64" fill="rgb(254,153,80)" fill-opacity="0.839216" />
<polygon points="187,225 106,216 86,227" id="65" fill="rgb(254,180,88)" fill-opacity="0.839216" />
<ellipse cx="158" cy="247" rx="20" ry="9" id="66" fill="rgb(255,156,76)" fill-opacity="0.839216" />
<polygon points="105,122 90,139 125,155" id="67" fill="rgb(44,1,48)" fill-opacity="0.839216" />
<ellipse cx="79" cy="195" rx="24" ry="16" id="68" fill="rgb(249,191,89)" fill-opacity="0.839216" />
<polygon points="206,140 193,139 196,149" id="69" fill="rgb(242,94,82)" fill-opacity="0.839216" />
<polygon points="182,256 191,256 208,218" id="70" fill="rgb(251,84,59)" fill-opacity="0.839216" />
<polygon points="155,158 177,178 179,162" id="71" fill="rgb(249,121,80)" fill-opacity="0.839216" />
<ellipse cx="129" cy="118" rx="23" ry="3" id="72" fill="rgb(253,200,92)" fill-opacity="0.839216" />
<polygon points="189,153 179,172 196,173" id="73" fill="rgb(86,6,52)" fill-opacity="0.839216" />
<polygon points="178,77 212,27 146,30" id="74" fill="rgb(85,6,51)" fill-opacity="0.839216" />
<ellipse cx="6" cy="218" rx="26" ry="36" id="75" fill="rgb(60,20,79)" fill-opacity="0.839216" />
<polygon points="216,220 206,221 196,250" id="76" fill="rgb(247,183,114)" fill-opacity="0.839216" />
<polygon points="91,169 97,179 113,149" id="77" fill="rgb(109,11,56)" fill-opacity="0.839216" />
<polygon points="98,112 167,112 92,100" id="78" fill="rgb(205,35,55)" fill-opacity="0.839216" />
<ellipse cx="90" cy="151" rx="11" ry="6" id="79" fill="rgb(243,221,129)" fill-opacity="0.839216" />
<ellipse cx="185" cy="119" rx="10" ry="2" id="80" fill="rgb(232,187,106)" fill-opacity="0.839216" />
<polygon points="193,114 180,94 179,85" id="81" fill="rgb(164,29,98)" fill-opacity="0.839216" />
<ellipse cx="122" cy="23" rx="7" ry="9" id="82" fill="rgb(254,199,97)" fill-opacity="0.839216" />
<ellipse cx="113" cy="62" rx="16" ry="28" id="83" fill="rgb(231,42,60)" fill-opacity="0.839216" />
<polygon points="215,197 214,171 173,256" id="84" fill="rgb(249,145,79)" fill-opacity="0.839216" />
<ellipse cx="103" cy="160" rx="7" ry="3" id="85" fill="rgb(169,52,95)" fill-opacity="0.839216" />
<ellipse cx="30" cy="0" rx="26" ry="10" id="86" fill="rgb(199,60,46)" fill-opacity="0.839216" />
<ellipse cx="227" cy="107" rx="33" ry="31" id="87" fill="rgb(44,10,71)" fill-opacity="0.839216" />
<ellipse cx="127" cy="167" rx="4" ry="6" id="88" fill="rgb(255,110,74)" fill-opacity="0.839216" />
<polygon points="137,169 129,155 173,85" id="89" fill="rgb(52,2,47)" fill-opacity="0.839216" />
<polygon points="256,174 210,256 241,237" id="90" fill="rgb(63,33,88)" fill-opacity="0.839216" />
<ellipse cx="77" cy="133" rx="5" ry="11" id="91" fill="rgb(83,27,80)" fill-opacity="0.839216" />
<polygon points="61,212 36,164 70,256" id="92" fill="rgb(246,134,78)" fill-opacity="0.839216" />
<polygon points="175,80 141,24 126,50" id="93" fill="rgb(232,39,65)" fill-opacity="0.839216" />
<polygon points="118,27 122,31 135,-24" id="94" fill="rgb(253,198,99)" fill-opacity="0.839216" />
<polygon points="77,84 57,120 90,69" id="95" fill="rgb(159,22,76)" fill-opacity="0.839216" />
<polygon points="54,223 67,256 55,246" id="96" fill="rgb(248,79,60)" fill-opacity="0.839216" />
<polygon points="83,120 68,112 94,112" id="97" fill="rgb(247,215,120)" fill-opacity="0.839216" />
<polygon points="221,199 222,210 192,239" id="98" fill="rgb(248,101,66)" fill-opacity="0.839216" />
<ellipse cx="185" cy="18" rx="23" ry="19" id="99" fill="rgb(105,2,50)" fill-opacity="0.839216" />
<ellipse cx="171" cy="135" rx="29" ry="3" id="100" fill="rgb(40,0,54)" fill-opacity="0.839216" />
<polygon points="246,192 206,256 191,256" id="101" fill="rgb(87,11,61)" fill-opacity="0.839216" />
<polygon points="125,256 110,240 140,249" id="102" fill="rgb(214,38,47)" fill-opacity="0.839216" />
<polygon points="114,24 80,80 98,107" id="103" fill="rgb(230,39,61)" fill-opacity="0.839216" />
<polygon points="8,188 43,251 29,199" id="104" fill="rgb(79,8,62)" fill-opacity="0.839216" />
<ellipse cx="137" cy="204" rx="3" ry="5" id="105" fill="rgb(166,1,36)" fill-opacity="0.839216" />
<polygon points="19,159 80,76 35,160" id="106" fill="rgb(49,8,69)" fill-opacity="0.839216" />
<ellipse cx="68" cy="179" rx="11" ry="3" id="107" fill="rgb(246,151,84)" fill-opacity="0.839216" />
<ellipse cx="93" cy="0" rx="31" ry="21" id="108" fill="rgb(109,1,50)" fill-opacity="0.839216" />
<polygon points="126,154 108,125 155,112" id="109" fill="rgb(255,201,91)" fill-opacity="0.839216" />
<ellipse cx="127" cy="235" rx="27" ry="2" id="110" fill="rgb(146,2,37)" fill-opacity="0.839216" />
<polygon points="118,255 53,193 75,255" id="111" fill="rgb(254,160,80)" fill-opacity="0.839216" />
<ellipse cx="68" cy="159" rx="9" ry="3" id="112" fill="rgb(187,67,94)" fill-opacity="0.839216" />
<polygon points="61,180 44,149 33,171" id="113" fill="rgb(244,177,100)" fill-opacity="0.839216" />
<ellipse cx="68" cy="106" rx="8" ry="6" id="114" fill="rgb(78,12,71)" fill-opacity="0.839216" />
<polygon points="192,112 171,118 163,112" id="115" fill="rgb(252,212,124)" fill-opacity="0.839216" />
<ellipse cx="150" cy="96" rx="13" ry="16" id="116" fill="rgb(218,32,58)" fill-opacity="0.839216" />
<ellipse cx="181" cy="150" rx="9" ry="8" id="117" fill="rgb(235,199,126)" fill-opacity="0.839216" />
<polygon points="0,175 20,256 44,256" id="118" fill="rgb(62,28,85)" fill-opacity="0.839216" />
<ellipse cx="0" cy="254" rx="20" ry="31" id="119" fill="rgb(46,17,78)" fill-opacity="0.839216" />
<polygon points="132,256 183,256 196,207" id="120" fill="rgb(254,156,76)" fill-opacity="0.839216" />
<polygon points="56,0 2,85 0,89" id="121" fill="rgb(134,21,54)" fill-opacity="0.839216" />
</svg>