<?xml version="1.0" standalone="no"?>
<svg xmlns="http://www.w3.org/2000/svg" version="1.2" baseProfile="tiny" width="256" height="256" viewBox="0 0 256 256">
<rect x="0" y="0" width="256" height="256" id="0" fill="rgb(143,58,69)" fill-opacity="1" />
<ellipse cx="127" cy="214" rx="92" ry="47" id="1" fill="rgb(255,156,78)" fill-opacity="0.827451" />
<ellipse cx="218" cy="98" rx="47" ry="62" id="2" fill="rgb(56,11,71)" fill-opacity="0.827451" />
<ellipse cx="36" cy="96" rx="50" ry="64" id="3" fill="rgb(61,13,69)" fill-opacity="0.827451" />
<ellipse cx="210" cy="189" rx="14" ry="35" id="4" fill="rgb(253,161,86)" fill-opacity="0.827451" />
<ellipse cx="127" cy="77" rx="31" ry="65" id="5" fill="rgb(247,80,67)" fill-opacity="0.827451" />
<ellipse cx="177" cy="8" rx="34" ry="54" id="6" fill="rgb(93,0,47)" fill-opacity="0.827451" />
<ellipse cx="252" cy="255" rx="29" ry="158" id="7" fill="rgb(49,11,76)" fill-opacity="0.827451" />
<ellipse cx="11" cy="195" rx="17" ry="120" id="8" fill="rgb(46,9,75)" fill-opacity="0.827451" />
<polygon points="24,192 43,150 98,232" id="9" fill="rgb(255,188,95)" fill-opacity="0.827451" />
<ellipse cx="82" cy="152" rx="17" ry="11" id="10" fill="rgb(251,216,138)" fill-opacity="0.827451" />
<ellipse cx="79" cy="20" rx="32" ry="37" id="11" fill="rgb(90,0,48)" fill-opacity="0.827451" />
<ellipse cx="74" cy="116" rx="15" ry="5" id="12" fill="rgb(255,219,113)" fill-opacity="0.827451" />
<polygon points="101,115 127,155 151,117" id="13" fill="rgb(255,223,97)" fill-opacity="0.827451" />
<ellipse cx="172" cy="152" rx="18" ry="11" id="14" fill="rgb(248,208,129)" fill-opacity="0.827451" />
<ellipse cx="127" cy="80" rx="45" ry="36" id="15" fill="rgb(227,30,58)" fill-opacity="0.827451" />
<polygon points="197,124 160,112 191,112" id="16" fill="rgb(255,232,123)" fill-opacity="0.827451" />
<polygon points="55,0 0,0 0,88" id="17" fill="rgb(201,51,39)" fill-opacity="0.827451" />
<polygon points="129,162 102,196 91,99" id="18" fill="rgb(81,2,55)" fill-opacity="0.827451" />
<polygon points="256,90 256,0 200,0" id="19" fill="rgb(199,45,41)" fill-opacity="0.827451" />
<polygon points="171,89 126,159 148,190" id="20" fill="rgb(69,0,53)" fill-opacity="0.827451" />
<ellipse cx="25" cy="242" rx="23" ry="26" id="21" fill="rgb(56,16,77)" fill-opacity="0.827451" />
<ellipse cx="127" cy="240" rx="22" ry="14" id="22" fill="rgb(217,49,56)" fill-opacity="0.827451" />
<ellipse cx="171" cy="220" rx="19" ry="56" id="23" fill="rgb(255,178,81)" fill-opacity="0.827451" />
<ellipse cx="85" cy="219" rx="19" ry="54" id="24" fill="rgb(254,175,83)" fill-opacity="0.827451" />
<ellipse cx="218" cy="251" rx="13" ry="29" id="25" fill="rgb(57,17,74)" fill-opacity="0.827451" />
<polygon points="216,162 230,192 113,229" id="26" fill="rgb(250,187,90)" fill-opacity="0.827451" />
<ellipse cx="45" cy="78" rx="22" ry="51" id="27" fill="rgb(41,8,71)" fill-opacity="0.827451" />
<polygon points="128,0 142,31 112,31" id="28" fill="rgb(255,207,98)" fill-opacity="0.827451" />
<polygon points="133,168 148,198 165,165" id="29" fill="rgb(165,6,50)" fill-opacity="0.827451" />
<ellipse cx="211" cy="79" rx="24" ry="49" id="30" fill="rgb(41,8,72)" fill-opacity="0.827451" />
<polygon points="53,136 99,112 113,141" id="31" fill="rgb(42,3,59)" fill-opacity="0.827451" />
<ellipse cx="201" cy="143" rx="8" ry="7" id="32" fill="rgb(224,68,74)" fill-opacity="0.827451" />
<polygon points="65,105 42,152 59,149" id="33" fill="rgb(211,75,77)" fill-opacity="0.827451" />
<ellipse cx="168" cy="129" rx="21" ry="11" id="34" fill="rgb(49,8,62)" fill-opacity="0.827451" />
<ellipse cx="128" cy="207" rx="14" ry="9" id="35" fill="rgb(212,35,48)" fill-opacity="0.827451" />
<polygon points="0,166 47,233 54,256" id="36" fill="rgb(67,6,58)" fill-opacity="0.827451" />
<polygon points="229,188 221,211 190,228" id="37" fill="rgb(230,75,62)" fill-opacity="0.827451" />
<polygon points="189,256 104,240 205,238" id="38" fill="rgb(255,137,74)" fill-opacity="0.827451" />
<ellipse cx="244" cy="139" rx="31" ry="45" id="39" fill="rgb(53,8,69)" fill-opacity="0.827451" />
<polygon points="48,143 61,178 71,158" id="40" fill="rgb(100,5,58)" fill-opacity="0.827451" />
<polygon points="117,176 105,198 90,164" id="41" fill="rgb(167,8,52)" fill-opacity="0.827451" />
<polygon points="38,197 63,256 72,256" id="42" fill="rgb(243,72,56)" fill-opacity="0.827451" />
<polygon points="199,0 147,33 129,0" id="43" fill="rgb(108,0,49)" fill-opacity="0.827451" />
<polygon points="100,152 87,162 97,143" id="44" fill="rgb(246,222,178)" fill-opacity="0.827451" />
<polygon points="67,0 76,87 126,0" id="45" fill="rgb(96,1,50)" fill-opacity="0.827451" />
<polygon points="120,168 125,156 49,33" id="46" fill="rgb(50,4,55)" fill-opacity="0.827451" />
<polygon points="214,22 176,82 144,22" id="47" fill="rgb(86,3,51)" fill-opacity="0.827451" />
<polygon points="31,174 52,8 0,93" id="48" fill="rgb(45,9,71)" fill-opacity="0.827451" />
<ellipse cx="69" cy="169" rx="7" ry="7" id="49" fill="rgb(67,0,39)" fill-opacity="0.827451" />
<polygon points="140,23 127,46 115,20" id="50" fill="rgb(255,206,98)" fill-opacity="0.827451" />
<polygon points="46,201 35,216 28,193" id="51" fill="rgb(242,98,73)" fill-opacity="0.827451" />
<polygon points="156,146 160,176 142,167" id="52" fill="rgb(132,23,62)" fill-opacity="0.827451" />
<polygon points="240,181 208,256 195,256" id="53" fill="rgb(73,7,59)" fill-opacity="0.827451" />
<polygon points="139,18 212,147 152,45" id="54" fill="rgb(198,37,79)" fill-opacity="0.827451" />
<polygon points="195,53 131,151 136,174" id="55" fill="rgb(51,6,55)" fill-opacity="0.827451" />
<ellipse cx="169" cy="149" rx="14" ry="8" id="56" fill="rgb(234,198,112)" fill-opacity="0.827451" />
<polygon points="9,159 36,161 24,190" id="57" fill="rgb(105,4,54)" fill-opacity="0.827451" />
<polygon points="106,201 146,198 126,161" id="58" fill="rgb(255,161,87)" fill-opacity="0.827451" />
<polygon points="29,179 122,227 92,177" id="59" fill="rgb(249,189,90)" fill-opacity="0.827451" />
<polygon points="112,24 81,83 159,97" id="60" fill="rgb(231,40,61)" fill-opacity="0.827451" />
<polygon points="221,170 233,186 252,143" id="61" fill="rgb(104,6,57)" fill-opacity="0.827451" />
<polygon points="183,256 217,185 133,256" id="62" fill="rgb(255,155,77)" fill-opacity="0.827451" />
<polygon points="256,96 212,148 210,19" id="63" fill="rgb(44,10,71)" fill-opacity="0.827451" />
<polygon points="86,118 55,131 65,145" id="64" fill="rgb(68,20,74)" fill-opacity="0.827451" />
<polygon points="77,80 31,166 39,28" id="65" fill="rgb(45,10,72)" fill-opacity="0.827451" />
<ellipse cx="84" cy="164" rx="11" ry="4" id="66" fill="rgb(243,98,76)" fill-opacity="0.827451" />
<polygon points="104,94 175,80 140,25" id="67" fill="rgb(232,37,63)" fill-opacity="0.827451" />
<ellipse cx="194" cy="182" rx="32" ry="6" id="68" fill="rgb(246,185,87)" fill-opacity="0.827451" />
<polygon points="184,157 219,141 190,177" id="69" fill="rgb(112,16,63)" fill-opacity="0.827451" />
<polygon points="92,115 93,112 71,113" id="70" fill="rgb(255,234,130)" fill-opacity="0.827451" />
<polygon points="174,132 183,119 207,129" id="71" fill="rgb(115,46,82)" fill-opacity="0.827451" />
<ellipse cx="186" cy="170" rx="8" ry="6" id="72" fill="rgb(73,0,40)" fill-opacity="0.827451" />
<ellipse cx="171" cy="166" rx="9" ry="5" id="73" fill="rgb(254,107,70)" fill-opacity="0.827451" />
<ellipse cx="167" cy="114" rx="5" ry="3" id="74" fill="rgb(253,218,132)" fill-opacity="0.827451" />
<polygon points="207,143 212,199 214,154" id="75" fill="rgb(239,149,95)" fill-opacity="0.827451" />
<ellipse cx="126" cy="235" rx="27" ry="3" id="76" fill="rgb(159,0,40)" fill-opacity="0.827451" />
<polygon points="85,256 69,254 39,170" id="77" fill="rgb(252,141,76)" fill-opacity="0.827451" />
<polygon points="47,256 62,256 8,190" id="78" fill="rgb(88,6,62)" fill-opacity="0.827451" />
<polygon points="56,211 79,256 118,247" id="79" fill="rgb(255,156,79)" fill-opacity="0.827451" />
<polygon points="77,112 53,130 66,112" id="80" fill="rgb(255,197,104)" fill-opacity="0.827451" />
<polygon points="158,181 205,189 141,228" id="81" fill="rgb(250,192,86)" fill-opacity="0.827451" />
<polygon points="200,132 188,104 219,164" id="82" fill="rgb(231,78,95)" fill-opacity="0.827451" />
<polygon points="210,256 256,256 256,175" id="83" fill="rgb(57,27,85)" fill-opacity="0.827451" />
<polygon points="80,77 55,36 116,18" id="84" fill="rgb(86,6,51)" fill-opacity="0.827451" />
<polygon points="221,196 211,203 187,256" id="85" fill="rgb(228,67,59)" fill-opacity="0.827451" />
</svg>