<?xml version="1.0" standalone="no"?>
<svg xmlns="http://www.w3.org/2000/svg" version="1.2" baseProfile="tiny" width="256" height="256" viewBox="0 0 256 256">
<rect x="0" y="0" width="256" height="256" id="0" fill="rgb(143,58,69)" fill-opacity="1" />
<ellipse cx="127" cy="214" rx="92" ry="47" id="1" fill="rgb(255,156,78)" fill-opacity="0.827451" />
<ellipse cx="218" cy="98" rx="47" ry="62" id="2" fill="rgb(56,11,71)" fill-opacity="0.827451" />
<ellipse cx="36" cy="96" rx="50" ry="64" id="3" fill="rgb(61,13,69)" fill-opacity="0.827451" />
<ellipse cx="210" cy="189" rx="14" ry="35" id="4" fill="rgb(253,161,86)" fill-opacity="0.827451" />
<ellipse cx="127" cy="77" rx="31" ry="65" id="5" fill="rgb(247,80,67)" fill-opacity="0.827451" />
<ellipse cx="178" cy="9" rx="35" ry="53" id="6" fill="rgb(93,0,48)" fill-opacity="0.827451" />
<ellipse cx="252" cy="255" rx="29" ry="158" id="7" fill="rgb(49,11,76)" fill-opacity="0.827451" />
<ellipse cx="11" cy="195" rx="17" ry="120" id="8" fill="rgb(46,9,75)" fill-opacity="0.827451" />
<polygon points="24,192 43,150 98,232" id="9" fill="rgb(255,188,95)" fill-opacity="0.827451" />
<ellipse cx="82" cy="152" rx="17" ry="11" id="10" fill="rgb(251,216,138)" fill-opacity="0.827451" />
<ellipse cx="79" cy="20" rx="32" ry="37" id="11" fill="rgb(90,0,48)" fill-opacity="0.827451" />
<ellipse cx="3" cy="27" rx="27" ry="43" id="12" fill="rgb(198,49,37)" fill-opacity="0.827451" />
<ellipse cx="127" cy="81" rx="44" ry="35" id="13" fill="rgb(228,30,58)" fill-opacity="0.827451" />
<ellipse cx="108" cy="160" rx="12" ry="29" id="14" fill="rgb(88,0,56)" fill-opacity="0.827451" />
<polygon points="149,118 129,156 101,114" id="15" fill="rgb(255,219,94)" fill-opacity="0.827451" />
<polygon points="155,146 208,138 167,177" id="16" fill="rgb(242,169,110)" fill-opacity="0.827451" />
<polygon points="200,0 256,89 256,0" id="17" fill="rgb(200,45,41)" fill-opacity="0.827451" />
<ellipse cx="74" cy="116" rx="15" ry="5" id="18" fill="rgb(255,219,113)" fill-opacity="0.827451" />
<ellipse cx="160" cy="128" rx="14" ry="13" id="19" fill="rgb(32,0,53)" fill-opacity="0.827451" />
<polygon points="158,114 193,111 196,123" id="20" fill="rgb(255,216,117)" fill-opacity="0.827451" />
<ellipse cx="146" cy="161" rx="13" ry="28" id="21" fill="rgb(99,0,55)" fill-opacity="0.827451" />
<ellipse cx="27" cy="246" rx="22" ry="31" id="22" fill="rgb(58,16,77)" fill-opacity="0.827451" />
<polygon points="156,231 99,229 124,256" id="23" fill="rgb(211,43,55)" fill-opacity="0.827451" />
<ellipse cx="170" cy="219" rx="21" ry="51" id="24" fill="rgb(255,178,81)" fill-opacity="0.827451" />
<ellipse cx="85" cy="215" rx="18" ry="50" id="25" fill="rgb(254,176,84)" fill-opacity="0.827451" />
<ellipse cx="40" cy="86" rx="28" ry="43" id="26" fill="rgb(40,8,72)" fill-opacity="0.827451" />
<polygon points="143,30 127,0 112,30" id="27" fill="rgb(255,207,99)" fill-opacity="0.827451" />
<polygon points="195,256 236,188 222,256" id="28" fill="rgb(62,10,67)" fill-opacity="0.827451" />
<polygon points="134,165 61,122 93,117" id="29" fill="rgb(47,4,58)" fill-opacity="0.827451" />
<polygon points="43,152 66,104 59,148" id="30" fill="rgb(212,79,77)" fill-opacity="0.827451" />
<ellipse cx="210" cy="76" rx="22" ry="49" id="31" fill="rgb(42,8,72)" fill-opacity="0.827451" />
<ellipse cx="202" cy="189" rx="27" ry="14" id="32" fill="rgb(251,182,88)" fill-opacity="0.827451" />
<polygon points="117,179 87,164 106,197" id="33" fill="rgb(178,17,55)" fill-opacity="0.827451" />
<polygon points="48,21 114,142 31,38" id="34" fill="rgb(52,7,67)" fill-opacity="0.827451" />
<ellipse cx="128" cy="207" rx="14" ry="9" id="35" fill="rgb(212,35,48)" fill-opacity="0.827451" />
<polygon points="216,157 196,119 189,148" id="36" fill="rgb(171,49,73)" fill-opacity="0.827451" />
<polygon points="209,201 231,190 187,256" id="37" fill="rgb(237,83,64)" fill-opacity="0.827451" />
<ellipse cx="127" cy="28" rx="8" ry="15" id="38" fill="rgb(255,205,96)" fill-opacity="0.827451" />
<ellipse cx="242" cy="135" rx="30" ry="48" id="39" fill="rgb(52,8,69)" fill-opacity="0.827451" />
<polygon points="54,0 126,0 77,85" id="40" fill="rgb(97,1,50)" fill-opacity="0.827451" />
<polygon points="0,87 0,0 56,0" id="41" fill="rgb(191,50,44)" fill-opacity="0.827451" />
<polygon points="129,0 201,0 144,28" id="42" fill="rgb(109,0,49)" fill-opacity="0.827451" />
<ellipse cx="66" cy="169" rx="9" ry="8" id="43" fill="rgb(69,0,39)" fill-opacity="0.827451" />
<polygon points="25,188 88,172 120,226" id="44" fill="rgb(250,186,90)" fill-opacity="0.827451" />
<polygon points="197,158 168,118 189,121" id="45" fill="rgb(81,24,72)" fill-opacity="0.827451" />
<ellipse cx="130" cy="241" rx="62" ry="3" id="46" fill="rgb(254,148,81)" fill-opacity="0.827451" />
<ellipse cx="75" cy="132" rx="19" ry="9" id="47" fill="rgb(62,16,72)" fill-opacity="0.827451" />
<ellipse cx="171" cy="150" rx="17" ry="9" id="48" fill="rgb(237,208,129)" fill-opacity="0.827451" />
<ellipse cx="35" cy="204" rx="4" ry="10" id="49" fill="rgb(251,110,74)" fill-opacity="0.827451" />
<polygon points="124,160 139,161 188,65" id="50" fill="rgb(48,4,52)" fill-opacity="0.827451" />
<polygon points="203,135 149,143 189,125" id="51" fill="rgb(66,15,72)" fill-opacity="0.827451" />
<polygon points="24,49 79,76 27,178" id="52" fill="rgb(46,9,71)" fill-opacity="0.827451" />
<polygon points="116,116 153,115 125,158" id="53" fill="rgb(252,198,91)" fill-opacity="0.827451" />
<polygon points="170,166 147,193 134,178" id="54" fill="rgb(199,31,56)" fill-opacity="0.827451" />
<polygon points="145,30 176,81 74,89" id="55" fill="rgb(231,37,63)" fill-opacity="0.827451" />
<polygon points="67,256 57,206 26,192" id="56" fill="rgb(248,107,71)" fill-opacity="0.827451" />
<polygon points="211,148 229,189 166,231" id="57" fill="rgb(248,175,89)" fill-opacity="0.827451" />
<polygon points="206,156 193,177 176,169" id="58" fill="rgb(88,0,47)" fill-opacity="0.827451" />
<polygon points="222,167 230,190 256,140" id="59" fill="rgb(100,6,57)" fill-opacity="0.827451" />
<polygon points="114,23 76,89 140,75" id="60" fill="rgb(230,41,61)" fill-opacity="0.827451" />
<ellipse cx="127" cy="235" rx="27" ry="3" id="61" fill="rgb(161,2,40)" fill-opacity="0.827451" />
<polygon points="0,167 43,256 61,255" id="62" fill="rgb(78,7,62)" fill-opacity="0.827451" />
<polygon points="148,26 216,24 175,81" id="63" fill="rgb(84,4,51)" fill-opacity="0.827451" />
<polygon points="142,187 76,217 135,177" id="64" fill="rgb(253,184,93)" fill-opacity="0.827451" />
<polygon points="157,113 200,39 178,109" id="65" fill="rgb(54,10,70)" fill-opacity="0.827451" />
<ellipse cx="86" cy="150" rx="15" ry="8" id="66" fill="rgb(239,214,127)" fill-opacity="0.827451" />
<polygon points="64,256 51,241 79,256" id="67" fill="rgb(252,94,63)" fill-opacity="0.827451" />
<ellipse cx="18" cy="170" rx="14" ry="13" id="68" fill="rgb(89,5,60)" fill-opacity="0.827451" />
<polygon points="26,186 78,223 44,148" id="69" fill="rgb(248,175,94)" fill-opacity="0.827451" />
<ellipse cx="224" cy="104" rx="33" ry="28" id="70" fill="rgb(44,10,71)" fill-opacity="0.827451" />
<polygon points="132,171 127,158 106,197" id="71" fill="rgb(251,114,74)" fill-opacity="0.827451" />
<polygon points="204,192 142,229 164,165" id="72" fill="rgb(250,189,85)" fill-opacity="0.827451" />
<polygon points="87,234 145,223 28,191" id="73" fill="rgb(254,169,84)" fill-opacity="0.827451" />
<polygon points="202,242 188,256 177,253" id="74" fill="rgb(255,107,65)" fill-opacity="0.827451" />
<polygon points="178,171 147,158 182,162" id="75" fill="rgb(235,93,77)" fill-opacity="0.827451" />
<polygon points="117,172 126,155 89,99" id="76" fill="rgb(49,0,47)" fill-opacity="0.827451" />
<polygon points="218,188 183,255 133,256" id="77" fill="rgb(255,152,76)" fill-opacity="0.827451" />
<polygon points="88,177 95,162 68,157" id="78" fill="rgb(242,121,84)" fill-opacity="0.827451" />
<polygon points="209,256 256,256 256,175" id="79" fill="rgb(57,27,85)" fill-opacity="0.827451" />
<polygon points="127,185 121,191 166,209" id="80" fill="rgb(251,203,105)" fill-opacity="0.827451" />
<polygon points="213,173 203,195 214,177" id="81" fill="rgb(198,103,69)" fill-opacity="0.827451" />
<polygon points="31,209 2,256 0,144" id="82" fill="rgb(58,18,79)" fill-opacity="0.827451" />
<ellipse cx="129" cy="102" rx="32" ry="13" id="83" fill="rgb(212,33,53)" fill-opacity="0.827451" />
<ellipse cx="172" cy="115" rx="6" ry="4" id="84" fill="rgb(254,223,125)" fill-opacity="0.827451" />
<polygon points="40,223 42,174 79,256" id="85" fill="rgb(247,133,79)" fill-opacity="0.827451" />
<ellipse cx="77" cy="191" rx="23" ry="11" id="86" fill="rgb(248,196,90)" fill-opacity="0.827451" />
<polygon points="56,201 118,256 72,256" id="87" fill="rgb(255,157,79)" fill-opacity="0.827451" />
<polygon points="161,143 182,144 177,140" id="88" fill="rgb(185,95,83)" fill-opacity="0.827451" />
<polygon points="154,193 149,234 134,222" id="89" fill="rgb(255,177,83)" fill-opacity="0.827451" />
<polygon points="67,256 41,199 38,200" id="90" fill="rgb(224,60,54)" fill-opacity="0.827451" />
<polygon points="173,84 94,104 140,26" id="91" fill="rgb(231,38,62)" fill-opacity="0.827451" />
<polygon points="181,92 216,157 208,147" id="92" fill="rgb(227,69,98)" fill-opacity="0.827451" />
<ellipse cx="95" cy="168" rx="2" ry="6" id="93" fill="rgb(84,0,37)" fill-opacity="0.827451" />
<polygon points="96,112 57,124 64,112" id="94" fill="rgb(253,209,111)" fill-opacity="0.827451" />
<ellipse cx="97" cy="159" rx="4" ry="4" id="95" fill="rgb(188,71,99)" fill-opacity="0.827451" />
<ellipse cx="59" cy="144" rx="4" ry="4" id="96" fill="rgb(255,111,82)" fill-opacity="0.827451" />
<ellipse cx="191" cy="157" rx="6" ry="2" id="97" fill="rgb(103,14,76)" fill-opacity="0.827451" />
<polygon points="119,155 159,176 162,168" id="98" fill="rgb(95,0,46)" fill-opacity="0.827451" />
<polygon points="253,0 217,27 199,0" id="99" fill="rgb(195,57,46)" fill-opacity="0.827451" />
<ellipse cx="128" cy="199" rx="12" ry="3" id="100" fill="rgb(254,112,70)" fill-opacity="0.827451" />
<polygon points="256,142 219,163 177,74" id="101" fill="rgb(47,9,71)" fill-opacity="0.827451" />
<polygon points="92,109 74,70 72,108" id="102" fill="rgb(54,9,71)" fill-opacity="0.827451" />
<polygon points="173,87 156,97 141,25" id="103" fill="rgb(231,36,64)" fill-opacity="0.827451" />
<polygon points="48,253 0,197 25,256" id="104" fill="rgb(65,29,85)" fill-opacity="0.827451" />
<ellipse cx="153" cy="146" rx="3" ry="4" id="105" fill="rgb(65,6,77)" fill-opacity="0.827451" />
<polygon points="129,256 146,238 116,251" id="106" fill="rgb(216,41,48)" fill-opacity="0.827451" />
<polygon points="47,23 20,57 47,16" id="107" fill="rgb(68,1,56)" fill-opacity="0.827451" />
<polygon points="204,228 214,222 198,246" id="108" fill="rgb(254,212,132)" fill-opacity="0.827451" />
<polygon points="106,162 87,163 108,157" id="109" fill="rgb(184,57,87)" fill-opacity="0.827451" />
<polygon points="0,37 26,46 0,89" id="110" fill="rgb(179,38,44)" fill-opacity="0.827451" />
<polygon points="29,184 43,148 36,198" id="111" fill="rgb(245,192,104)" fill-opacity="0.827451" />
<ellipse cx="196" cy="144" rx="3" ry="4" id="112" fill="rgb(255,115,84)" fill-opacity="0.827451" />
<polygon points="53,161 44,143 71,156" id="113" fill="rgb(111,8,61)" fill-opacity="0.827451" />
<polygon points="256,30 235,53 256,93" id="114" fill="rgb(178,31,46)" fill-opacity="0.827451" />
<polygon points="108,144 96,109 81,134" id="115" fill="rgb(42,0,53)" fill-opacity="0.827451" />
<polygon points="177,82 215,26 250,85" id="116" fill="rgb(45,10,72)" fill-opacity="0.827451" />
<polygon points="229,223 219,235 256,167" id="117" fill="rgb(99,17,72)" fill-opacity="0.827451" />
<polygon points="156,111 118,142 110,123" id="118" fill="rgb(255,200,90)" fill-opacity="0.827451" />
<ellipse cx="179" cy="135" rx="23" ry="3" id="119" fill="rgb(43,2,57)" fill-opacity="0.827451" />
<ellipse cx="149" cy="143" rx="7" ry="9" id="120" fill="rgb(45,2,57)" fill-opacity="0.827451" />
<polygon points="219,31 142,24 197,2" id="121" fill="rgb(101,1,51)" fill-opacity="0.827451" />
<ellipse cx="148" cy="173" rx="14" ry="5" id="122" fill="rgb(148,5,52)" fill-opacity="0.827451" />
<ellipse cx="23" cy="0" rx="30" ry="22" id="123" fill="rgb(193,58,45)" fill-opacity="0.827451" />
<ellipse cx="47" cy="227" rx="3" ry="5" id="124" fill="rgb(245,201,116)" fill-opacity="0.827451" />
<polygon points="39,30 -5,102 26,160" id="125" fill="rgb(43,10,72)" fill-opacity="0.827451" />
<polygon points="48,186 38,175 35,168" id="126" fill="rgb(189,87,54)" fill-opacity="0.827451" />
<polygon points="157,152 156,148 170,159" id="127" fill="rgb(254,240,174)" fill-opacity="0.827451" />
<polygon points="80,81 173,82 90,97" id="128" fill="rgb(229,36,62)" fill-opacity="0.827451" />
<polygon points="57,38 77,78 110,26" id="129" fill="rgb(83,6,52)" fill-opacity="0.827451" />
<ellipse cx="127" cy="179" rx="11" ry="7" id="130" fill="rgb(255,137,77)" fill-opacity="0.827451" />
<polygon points="177,178 212,175 138,213" id="131" fill="rgb(249,188,86)" fill-opacity="0.827451" />
<ellipse cx="89" cy="5" rx="33" ry="15" id="132" fill="rgb(110,1,50)" fill-opacity="0.827451" />
<polygon points="103,110 111,83 130,117" id="133" fill="rgb(209,33,52)" fill-opacity="0.827451" />
<ellipse cx="26" cy="203" rx="5" ry="6" id="134" fill="rgb(73,7,59)" fill-opacity="0.827451" />
<polygon points="214,203 207,216 209,205" id="135" fill="rgb(168,24,51)" fill-opacity="0.827451" />
<polygon points="256,201 230,256 256,256" id="136" fill="rgb(48,16,78)" fill-opacity="0.827451" />
<polygon points="24,256 0,256 0,205" id="137" fill="rgb(46,17,79)" fill-opacity="0.827451" />
<ellipse cx="125" cy="228" rx="14" ry="2" id="138" fill="rgb(241,44,58)" fill-opacity="0.827451" />
<ellipse cx="83" cy="154" rx="8" ry="8" id="139" fill="rgb(243,224,122)" fill-opacity="0.827451" />
<polygon points="67,121 85,129 57,130" id="140" fill="rgb(100,44,84)" fill-opacity="0.827451" />
<ellipse cx="23" cy="168" rx="10" ry="8" id="141" fill="rgb(108,3,55)" fill-opacity="0.827451" />
<polygon points="117,176 123,163 95,173" id="142" fill="rgb(112,1,52)" fill-opacity="0.827451" />
<ellipse cx="105" cy="108" rx="9" ry="4" id="143" fill="rgb(208,30,53)" fill-opacity="0.827451" />
<polygon points="42,150 54,128 51,145" id="144" fill="rgb(237,43,68)" fill-opacity="0.827451" />
<polygon points="169,62 176,81 211,21" id="145" fill="rgb(80,6,53)" fill-opacity="0.827451" />
<polygon points="189,121 166,130 197,130" id="146" fill="rgb(97,43,83)" fill-opacity="0.827451" />
<ellipse cx="195" cy="255" rx="3" ry="6" id="147" fill="rgb(116,0,53)" fill-opacity="0.827451" />
<polygon points="127,48 139,20 127,0" id="148" fill="rgb(254,200,97)" fill-opacity="0.827451" />
<polygon points="194,157 206,154 205,141" id="149" fill="rgb(98,2,54)" fill-opacity="0.827451" />
<polygon points="228,256 256,195 241,231" id="150" fill="rgb(99,34,94)" fill-opacity="0.827451" />
<polygon points="109,226 141,224 120,222" id="151" fill="rgb(251,225,120)" fill-opacity="0.827451" />
<polygon points="173,77 156,111 153,45" id="152" fill="rgb(229,36,65)" fill-opacity="0.827451" />
<polygon points="49,242 43,256 62,253" id="153" fill="rgb(106,8,59)" fill-opacity="0.827451" />
<polygon points="184,256 201,231 191,256" id="154" fill="rgb(249,69,55)" fill-opacity="0.827451" />
<polygon points="138,54 108,34 93,57" id="155" fill="rgb(232,46,60)" fill-opacity="0.827451" />
<ellipse cx="24" cy="177" rx="5" ry="8" id="156" fill="rgb(107,6,54)" fill-opacity="0.827451" />
</svg>