<?xml version="1.0" standalone="no"?>
<svg xmlns="http://www.w3.org/2000/svg" version="1.2" baseProfile="tiny" width="256" height="256" viewBox="0 0 256 256">
<rect x="0" y="0" width="256" height="256" id="0" fill="rgb(145,134,160)" fill-opacity="1" />
<ellipse cx="115" cy="161" rx="95" ry="65" id="1" fill="rgb(115,95,137)" fill-opacity="0.85098" />
<polygon points="95,134 153,116 140,183" id="2" fill="rgb(167,190,193)" fill-opacity="0.85098" />
<polygon points="139,40 182,24 194,72" id="3" fill="rgb(40,52,121)" fill-opacity="0.85098" />
<polygon points="23,95 124,242 157,216" id="4" fill="rgb(81,58,111)" fill-opacity="0.85098" />
<ellipse cx="59" cy="28" rx="91" ry="62" id="5" fill="rgb(159,162,186)" fill-opacity="0.85098" />
<ellipse cx="229" cy="18" rx="46" ry="53" id="6" fill="rgb(189,164,172)" fill-opacity="0.85098" />
<polygon points="177,193 214,25 132,204" id="7" fill="rgb(168,63,114)" fill-opacity="0.85098" />
<ellipse cx="62" cy="217" rx="36" ry="19" id="8" fill="rgb(182,166,173)" fill-opacity="0.85098" />
<polygon points="21,135 176,130 46,57" id="9" fill="rgb(83,118,160)" fill-opacity="0.85098" />
<ellipse cx="220" cy="227" rx="72" ry="36" id="10" fill="rgb(173,158,167)" fill-opacity="0.85098" />
<ellipse cx="246" cy="139" rx="58" ry="28" id="11" fill="rgb(129,174,177)" fill-opacity="0.85098" />
<ellipse cx="37" cy="193" rx="25" ry="9" id="12" fill="rgb(76,43,115)" fill-opacity="0.85098" />
<ellipse cx="0" cy="73" rx="27" ry="134" id="13" fill="rgb(185,170,178)" fill-opacity="0.85098" />
<ellipse cx="77" cy="143" rx="22" ry="21" id="14" fill="rgb(38,80,137)" fill-opacity="0.85098" />
<polygon points="37,54 129,109 129,4" id="15" fill="rgb(121,156,189)" fill-opacity="0.85098" />
<polygon points="156,32 217,0 8,0" id="16" fill="rgb(185,171,187)" fill-opacity="0.85098" />
<polygon points="141,41 125,97 182,103" id="17" fill="rgb(198,140,151)" fill-opacity="0.85098" />
<ellipse cx="36" cy="234" rx="59" ry="33" id="18" fill="rgb(176,159,168)" fill-opacity="0.85098" />
<polygon points="232,72 196,138 239,112" id="19" fill="rgb(58,125,171)" fill-opacity="0.85098" />
<ellipse cx="107" cy="167" rx="16" ry="15" id="20" fill="rgb(181,129,134)" fill-opacity="0.85098" />
<polygon points="183,162 228,152 198,181" id="21" fill="rgb(48,41,115)" fill-opacity="0.85098" />
<ellipse cx="255" cy="154" rx="21" ry="99" id="22" fill="rgb(176,162,171)" fill-opacity="0.85098" />
<polygon points="83,165 181,179 94,212" id="23" fill="rgb(134,73,107)" fill-opacity="0.85098" />
<polygon points="70,84 71,129 25,89" id="24" fill="rgb(140,154,193)" fill-opacity="0.85098" />
<polygon points="27,154 63,123 24,101" id="25" fill="rgb(51,59,127)" fill-opacity="0.85098" />
<polygon points="152,169 136,114 104,169" id="26" fill="rgb(177,196,201)" fill-opacity="0.85098" />
<polygon points="141,98 203,121 234,52" id="27" fill="rgb(165,96,138)" fill-opacity="0.85098" />
<ellipse cx="104" cy="60" rx="19" ry="16" id="28" fill="rgb(130,205,209)" fill-opacity="0.85098" />
<polygon points="223,57 192,72 208,25" id="29" fill="rgb(202,112,121)" fill-opacity="0.85098" />
<polygon points="51,133 92,205 70,194" id="30" fill="rgb(87,154,179)" fill-opacity="0.85098" />
<polygon points="94,144 69,97 100,77" id="31" fill="rgb(54,102,154)" fill-opacity="0.85098" />
<polygon points="163,194 164,138 190,166" id="32" fill="rgb(168,14,100)" fill-opacity="0.85098" />
<polygon points="43,101 141,0 74,27" id="33" fill="rgb(126,128,175)" fill-opacity="0.85098" />
<polygon points="126,57 129,112 73,23" id="34" fill="rgb(127,201,203)" fill-opacity="0.85098" />
<ellipse cx="168" cy="71" rx="12" ry="11" id="35" fill="rgb(140,186,215)" fill-opacity="0.85098" />
<polygon points="82,0 0,20 66,46" id="36" fill="rgb(188,174,182)" fill-opacity="0.85098" />
<polygon points="241,106 194,125 210,143" id="37" fill="rgb(65,177,192)" fill-opacity="0.85098" />
<polygon points="148,146 163,134 99,117" id="38" fill="rgb(150,175,180)" fill-opacity="0.85098" />
<ellipse cx="11" cy="158" rx="17" ry="26" id="39" fill="rgb(181,166,176)" fill-opacity="0.85098" />
<ellipse cx="156" cy="198" rx="23" ry="8" id="40" fill="rgb(171,124,124)" fill-opacity="0.85098" />
<ellipse cx="129" cy="214" rx="24" ry="12" id="41" fill="rgb(62,29,92)" fill-opacity="0.85098" />
<polygon points="41,97 41,40 61,80" id="42" fill="rgb(107,78,144)" fill-opacity="0.85098" />
<polygon points="186,92 215,48 209,100" id="43" fill="rgb(117,91,161)" fill-opacity="0.85098" />
<polygon points="217,154 194,122 184,160" id="44" fill="rgb(150,192,185)" fill-opacity="0.85098" />
<ellipse cx="225" cy="197" rx="20" ry="37" id="45" fill="rgb(173,160,170)" fill-opacity="0.85098" />
<polygon points="130,62 106,37 127,7" id="46" fill="rgb(112,113,176)" fill-opacity="0.85098" />
<ellipse cx="169" cy="146" rx="18" ry="10" id="47" fill="rgb(118,27,129)" fill-opacity="0.85098" />
<polygon points="35,158 60,167 51,129" id="48" fill="rgb(173,96,171)" fill-opacity="0.85098" />
<ellipse cx="27" cy="79" rx="14" ry="23" id="49" fill="rgb(186,172,182)" fill-opacity="0.85098" />
<ellipse cx="161" cy="126" rx="13" ry="5" id="50" fill="rgb(52,67,110)" fill-opacity="0.85098" />
<polygon points="67,72 129,64 64,94" id="51" fill="rgb(118,182,200)" fill-opacity="0.85098" />
<ellipse cx="128" cy="249" rx="44" ry="15" id="52" fill="rgb(159,147,167)" fill-opacity="0.85098" />
<polygon points="92,190 161,188 157,179" id="53" fill="rgb(82,43,100)" fill-opacity="0.85098" />
<polygon points="99,115 144,133 154,114" id="54" fill="rgb(120,155,156)" fill-opacity="0.85098" />
<polygon points="70,192 32,161 8,204" id="55" fill="rgb(98,53,125)" fill-opacity="0.85098" />
<ellipse cx="252" cy="31" rx="32" ry="55" id="56" fill="rgb(178,168,178)" fill-opacity="0.85098" />
<polygon points="75,66 115,42 92,80" id="57" fill="rgb(163,216,214)" fill-opacity="0.85098" />
<polygon points="159,203 186,171 153,256" id="58" fill="rgb(174,158,173)" fill-opacity="0.85098" />
<polygon points="193,74 142,42 182,20" id="59" fill="rgb(50,62,125)" fill-opacity="0.85098" />
<polygon points="215,98 165,107 181,131" id="60" fill="rgb(196,86,109)" fill-opacity="0.85098" />
<polygon points="92,205 2,206 89,195" id="61" fill="rgb(178,163,176)" fill-opacity="0.85098" />
<polygon points="146,107 176,124 150,97" id="62" fill="rgb(44,58,99)" fill-opacity="0.85098" />
<polygon points="137,43 182,18 128,0" id="63" fill="rgb(194,174,198)" fill-opacity="0.85098" />
<polygon points="91,114 70,174 86,186" id="64" fill="rgb(55,54,126)" fill-opacity="0.85098" />
<polygon points="154,166 101,179 150,180" id="65" fill="rgb(141,126,128)" fill-opacity="0.85098" />
<ellipse cx="107" cy="108" rx="10" ry="6" id="66" fill="rgb(50,95,123)" fill-opacity="0.85098" />
<polygon points="189,75 162,83 212,100" id="67" fill="rgb(122,68,148)" fill-opacity="0.85098" />
<polygon points="139,99 164,56 169,81" id="68" fill="rgb(185,182,202)" fill-opacity="0.85098" />
<ellipse cx="202" cy="179" rx="5" ry="11" id="69" fill="rgb(61,38,111)" fill-opacity="0.85098" />
<polygon points="109,148 92,157 83,132" id="70" fill="rgb(63,43,115)" fill-opacity="0.85098" />
<ellipse cx="129" cy="225" rx="17" ry="8" id="71" fill="rgb(62,58,113)" fill-opacity="0.85098" />
<polygon points="103,64 115,50 120,104" id="72" fill="rgb(83,184,204)" fill-opacity="0.85098" />
<polygon points="204,187 191,161 178,200" id="73" fill="rgb(113,34,123)" fill-opacity="0.85098" />
<polygon points="221,84 209,30 227,66" id="74" fill="rgb(228,115,111)" fill-opacity="0.85098" />
<polygon points="58,149 91,143 49,114" id="75" fill="rgb(28,79,133)" fill-opacity="0.85098" />
<polygon points="96,209 98,193 122,201" id="76" fill="rgb(176,88,82)" fill-opacity="0.85098" />
<polygon points="5,114 61,0 21,0" id="77" fill="rgb(184,171,180)" fill-opacity="0.85098" />
<polygon points="130,137 144,169 116,170" id="78" fill="rgb(203,205,220)" fill-opacity="0.85098" />
<polygon points="228,150 198,158 240,108" id="79" fill="rgb(114,193,172)" fill-opacity="0.85098" />
<polygon points="49,91 69,126 26,100" id="80" fill="rgb(91,153,191)" fill-opacity="0.85098" />
<polygon points="164,158 164,193 147,149" id="81" fill="rgb(198,77,88)" fill-opacity="0.85098" />
<polygon points="130,37 168,58 130,70" id="82" fill="rgb(186,139,185)" fill-opacity="0.85098" />
<ellipse cx="229" cy="100" rx="10" ry="9" id="83" fill="rgb(70,77,146)" fill-opacity="0.85098" />
<polygon points="77,196 10,203 46,190" id="84" fill="rgb(47,44,105)" fill-opacity="0.85098" />
<polygon points="231,0 225,36 132,0" id="85" fill="rgb(182,171,180)" fill-opacity="0.85098" />
<polygon points="156,68 131,111 146,51" id="86" fill="rgb(209,120,126)" fill-opacity="0.85098" />
<polygon points="110,151 95,157 96,186" id="87" fill="rgb(201,91,99)" fill-opacity="0.85098" />
<polygon points="162,137 168,157 146,148" id="88" fill="rgb(93,28,110)" fill-opacity="0.85098" />
<polygon points="65,114 50,88 64,82" id="89" fill="rgb(184,136,188)" fill-opacity="0.85098" />
<ellipse cx="40" cy="169" rx="13" ry="12" id="90" fill="rgb(123,76,145)" fill-opacity="0.85098" />
<polygon points="40,40 57,69 93,55" id="91" fill="rgb(129,123,176)" fill-opacity="0.85098" />
<ellipse cx="102" cy="189" rx="6" ry="11" id="92" fill="rgb(93,39,78)" fill-opacity="0.85098" />
<polygon points="27,169 33,135 45,136" id="93" fill="rgb(72,48,121)" fill-opacity="0.85098" />
<ellipse cx="66" cy="166" rx="5" ry="12" id="94" fill="rgb(46,155,180)" fill-opacity="0.85098" />
<polygon points="102,121 111,127 93,125" id="95" fill="rgb(29,49,85)" fill-opacity="0.85098" />
<polygon points="156,103 157,83 213,102" id="96" fill="rgb(189,122,148)" fill-opacity="0.85098" />
<polygon points="93,84 101,66 115,91" id="97" fill="rgb(124,123,184)" fill-opacity="0.85098" />
<polygon points="92,193 91,159 99,156" id="98" fill="rgb(166,59,124)" fill-opacity="0.85098" />
<polygon points="130,112 144,99 129,74" id="99" fill="rgb(180,133,125)" fill-opacity="0.85098" />
<polygon points="244,134 272,246 156,256" id="100" fill="rgb(170,156,166)" fill-opacity="0.85098" />
<polygon points="197,81 217,85 212,47" id="101" fill="rgb(115,106,165)" fill-opacity="0.85098" />
<polygon points="99,211 92,219 130,248" id="102" fill="rgb(124,128,154)" fill-opacity="0.85098" />
<ellipse cx="116" cy="155" rx="8" ry="9" id="103" fill="rgb(148,191,188)" fill-opacity="0.85098" />
<ellipse cx="255" cy="123" rx="18" ry="53" id="104" fill="rgb(176,164,174)" fill-opacity="0.85098" />
<polygon points="168,124 126,112 141,105" id="105" fill="rgb(111,141,148)" fill-opacity="0.85098" />
<polygon points="102,142 90,133 167,132" id="106" fill="rgb(157,169,180)" fill-opacity="0.85098" />
<polygon points="59,188 49,162 40,170" id="107" fill="rgb(82,82,142)" fill-opacity="0.85098" />
<polygon points="184,167 175,119 168,140" id="108" fill="rgb(148,38,133)" fill-opacity="0.85098" />
<polygon points="163,194 186,167 165,164" id="109" fill="rgb(191,12,84)" fill-opacity="0.85098" />
<ellipse cx="127" cy="218" rx="11" ry="8" id="110" fill="rgb(90,57,112)" fill-opacity="0.85098" />
<polygon points="180,0 193,67 203,40" id="111" fill="rgb(186,174,185)" fill-opacity="0.85098" />
<polygon points="163,244 139,256 157,220" id="112" fill="rgb(180,168,184)" fill-opacity="0.85098" />
<polygon points="74,141 72,89 104,90" id="113" fill="rgb(50,106,159)" fill-opacity="0.85098" />
<polygon points="209,117 210,106 186,130" id="114" fill="rgb(119,86,169)" fill-opacity="0.85098" />
<ellipse cx="13" cy="184" rx="4" ry="9" id="115" fill="rgb(180,163,174)" fill-opacity="0.85098" />
<ellipse cx="148" cy="212" rx="6" ry="5" id="116" fill="rgb(27,11,64)" fill-opacity="0.85098" />
<polygon points="131,202 98,210 156,210" id="117" fill="rgb(49,17,82)" fill-opacity="0.85098" />
<ellipse cx="156" cy="195" rx="9" ry="6" id="118" fill="rgb(155,91,83)" fill-opacity="0.85098" />
<ellipse cx="8" cy="149" rx="18" ry="45" id="119" fill="rgb(180,165,175)" fill-opacity="0.85098" />
<polygon points="107,138 160,118 132,119" id="120" fill="rgb(144,169,172)" fill-opacity="0.85098" />
<polygon points="205,105 217,96 227,69" id="121" fill="rgb(208,99,103)" fill-opacity="0.85098" />
<ellipse cx="112" cy="171" rx="4" ry="5" id="122" fill="rgb(122,102,101)" fill-opacity="0.85098" />
<polygon points="145,132 156,123 146,125" id="123" fill="rgb(34,44,80)" fill-opacity="0.85098" />
<polygon points="135,105 170,81 141,105" id="124" fill="rgb(161,67,83)" fill-opacity="0.85098" />
<ellipse cx="124" cy="77" rx="5" ry="16" id="125" fill="rgb(159,211,203)" fill-opacity="0.85098" />
<polygon points="150,188 131,202 108,194" id="126" fill="rgb(129,93,139)" fill-opacity="0.85098" />
<ellipse cx="59" cy="181" rx="5" ry="14" id="127" fill="rgb(122,53,138)" fill-opacity="0.85098" />
<polygon points="61,67 70,118 71,97" id="128" fill="rgb(108,164,193)" fill-opacity="0.85098" />
<ellipse cx="124" cy="113" rx="15" ry="4" id="129" fill="rgb(77,125,132)" fill-opacity="0.85098" />
<polygon points="190,96 171,118 159,103" id="130" fill="rgb(183,94,141)" fill-opacity="0.85098" />
<ellipse cx="79" cy="82" rx="9" ry="7" id="131" fill="rgb(121,190,202)" fill-opacity="0.85098" />
<ellipse cx="131" cy="173" rx="25" ry="3" id="132" fill="rgb(125,109,106)" fill-opacity="0.85098" />
<polygon points="214,41 208,28 194,79" id="133" fill="rgb(228,113,113)" fill-opacity="0.85098" />
<ellipse cx="224" cy="251" rx="66" ry="24" id="134" fill="rgb(166,151,162)" fill-opacity="0.85098" />
<polygon points="122,255 138,256 163,204" id="135" fill="rgb(134,134,163)" fill-opacity="0.85098" />
<polygon points="108,101 83,134 91,115" id="136" fill="rgb(32,62,103)" fill-opacity="0.85098" />
<polygon points="80,183 90,156 90,189" id="137" fill="rgb(96,38,121)" fill-opacity="0.85098" />
<polygon points="71,170 81,141 71,132" id="138" fill="rgb(25,59,117)" fill-opacity="0.85098" />
<ellipse cx="11" cy="50" rx="29" ry="59" id="139" fill="rgb(183,170,179)" fill-opacity="0.85098" />
<ellipse cx="77" cy="5" rx="20" ry="19" id="140" fill="rgb(186,174,183)" fill-opacity="0.85098" />
<polygon points="252,0 244,125 223,22" id="141" fill="rgb(179,167,177)" fill-opacity="0.85098" />
<ellipse cx="178" cy="206" rx="29" ry="5" id="142" fill="rgb(172,154,164)" fill-opacity="0.85098" />
<polygon points="96,204 86,188 112,196" id="143" fill="rgb(146,60,74)" fill-opacity="0.85098" />
<polygon points="81,42 84,60 57,76" id="144" fill="rgb(109,106,163)" fill-opacity="0.85098" />
<ellipse cx="186" cy="136" rx="4" ry="7" id="145" fill="rgb(134,47,143)" fill-opacity="0.85098" />
<polygon points="112,98 82,116 97,89" id="146" fill="rgb(68,117,169)" fill-opacity="0.85098" />
<polygon points="192,194 250,173 156,220" id="147" fill="rgb(173,159,171)" fill-opacity="0.85098" />
<ellipse cx="127" cy="241" rx="18" ry="8" id="148" fill="rgb(142,132,163)" fill-opacity="0.85098" />
<polygon points="154,185 139,202 138,193" id="149" fill="rgb(166,128,151)" fill-opacity="0.85098" />
<polygon points="78,31 116,46 77,26" id="150" fill="rgb(144,189,198)" fill-opacity="0.85098" />
<polygon points="199,107 178,136 186,99" id="151" fill="rgb(203,85,92)" fill-opacity="0.85098" />
<ellipse cx="193" cy="144" rx="3" ry="15" id="152" fill="rgb(177,183,188)" fill-opacity="0.85098" />
<polygon points="130,66 126,52 111,38" id="153" fill="rgb(87,97,161)" fill-opacity="0.85098" />
<ellipse cx="29" cy="150" rx="2" ry="10" id="154" fill="rgb(55,41,108)" fill-opacity="0.85098" />
<polygon points="129,77 142,71 137,109" id="155" fill="rgb(187,143,129)" fill-opacity="0.85098" />
</svg>