<?xml version="1.0" standalone="no"?>
<svg xmlns="http://www.w3.org/2000/svg" version="1.2" baseProfile="tiny" width="256" height="256" viewBox="0 0 256 256">
<rect x="0" y="0" width="256" height="256" id="0" fill="rgb(145,134,160)" fill-opacity="1" />
<ellipse cx="115" cy="161" rx="95" ry="65" id="1" fill="rgb(115,95,137)" fill-opacity="0.85098" />
<polygon points="95,134 153,116 140,183" id="2" fill="rgb(167,190,193)" fill-opacity="0.85098" />
<polygon points="139,40 182,24 194,72" id="3" fill="rgb(40,52,121)" fill-opacity="0.85098" />
<polygon points="23,95 124,242 157,216" id="4" fill="rgb(81,58,111)" fill-opacity="0.85098" />
<ellipse cx="59" cy="28" rx="91" ry="62" id="5" fill="rgb(159,162,186)" fill-opacity="0.85098" />
<ellipse cx="229" cy="18" rx="46" ry="53" id="6" fill="rgb(189,164,172)" fill-opacity="0.85098" />
<polygon points="177,193 214,25 132,204" id="7" fill="rgb(168,63,114)" fill-opacity="0.85098" />
<ellipse cx="62" cy="217" rx="36" ry="19" id="8" fill="rgb(182,166,173)" fill-opacity="0.85098" />
<polygon points="21,135 176,130 46,57" id="9" fill="rgb(83,118,160)" fill-opacity="0.85098" />
<ellipse cx="220" cy="227" rx="72" ry="36" id="10" fill="rgb(173,158,167)" fill-opacity="0.85098" />
<ellipse cx="246" cy="139" rx="58" ry="28" id="11" fill="rgb(129,174,177)" fill-opacity="0.85098" />
<ellipse cx="37" cy="193" rx="25" ry="9" id="12" fill="rgb(76,43,115)" fill-opacity="0.85098" />
<ellipse cx="0" cy="73" rx="27" ry="134" id="13" fill="rgb(185,170,178)" fill-opacity="0.85098" />
<ellipse cx="77" cy="143" rx="22" ry="21" id="14" fill="rgb(38,80,137)" fill-opacity="0.85098" />
<polygon points="37,54 129,109 129,4" id="15" fill="rgb(121,156,189)" fill-opacity="0.85098" />
<polygon points="156,32 217,0 8,0" id="16" fill="rgb(185,171,187)" fill-opacity="0.85098" />
<polygon points="141,41 125,97 182,103" id="17" fill="rgb(198,140,151)" fill-opacity="0.85098" />
<ellipse cx="36" cy="234" rx="59" ry="33" id="18" fill="rgb(176,159,168)" fill-opacity="0.85098" />
<polygon points="232,72 196,138 239,112" id="19" fill="rgb(58,125,171)" fill-opacity="0.85098" />
<ellipse cx="107" cy="167" rx="16" ry="15" id="20" fill="rgb(181,129,134)" fill-opacity="0.85098" />
<polygon points="183,162 228,152 198,181" id="21" fill="rgb(48,41,115)" fill-opacity="0.85098" />
<ellipse cx="255" cy="154" rx="21" ry="99" id="22" fill="rgb(176,162,171)" fill-opacity="0.85098" />
<polygon points="83,165 181,179 94,212" id="23" fill="rgb(134,73,107)" fill-opacity="0.85098" />
<polygon points="70,84 71,129 25,89" id="24" fill="rgb(140,154,193)" fill-opacity="0.85098" />
<polygon points="27,154 63,123 24,101" id="25" fill="rgb(51,59,127)" fill-opacity="0.85098" />
<polygon points="152,169 136,114 104,169" id="26" fill="rgb(177,196,201)" fill-opacity="0.85098" />
<polygon points="141,98 203,121 234,52" id="27" fill="rgb(165,96,138)" fill-opacity="0.85098" />
<ellipse cx="104" cy="60" rx="19" ry="16" id="28" fill="rgb(130,205,209)" fill-opacity="0.85098" />
<polygon points="223,57 192,72 208,25" id="29" fill="rgb(202,112,121)" fill-opacity="0.85098" />
<polygon points="51,133 92,205 70,194" id="30" fill="rgb(87,154,179)" fill-opacity="0.85098" />
<polygon points="94,144 69,97 100,77" id="31" fill="rgb(54,102,154)" fill-opacity="0.85098" />
<polygon points="163,194 164,138 190,166" id="32" fill="rgb(168,14,100)" fill-opacity="0.85098" />
<polygon points="43,101 141,0 74,27" id="33" fill="rgb(126,128,175)" fill-opacity="0.85098" />
<polygon points="126,57 129,112 73,23" id="34" fill="rgb(127,201,203)" fill-opacity="0.85098" />
<ellipse cx="168" cy="71" rx="12" ry="11" id="35" fill="rgb(140,186,215)" fill-opacity="0.85098" />
<polygon points="82,0 0,20 66,46" id="36" fill="rgb(188,174,182)" fill-opacity="0.85098" />
<polygon points="241,106 194,125 210,143" id="37" fill="rgb(65,177,192)" fill-opacity="0.85098" />
<polygon points="148,146 163,134 99,117" id="38" fill="rgb(150,175,180)" fill-opacity="0.85098" />
<ellipse cx="11" cy="158" rx="17" ry="26" id="39" fill="rgb(181,166,176)" fill-opacity="0.85098" />
<ellipse cx="156" cy="198" rx="23" ry="8" id="40" fill="rgb(171,124,124)" fill-opacity="0.85098" />
<ellipse cx="129" cy="214" rx="24" ry="12" id="41" fill="rgb(62,29,92)" fill-opacity="0.85098" />
<polygon points="41,97 41,40 61,80" id="42" fill="rgb(107,78,144)" fill-opacity="0.85098" />
<polygon points="186,92 215,48 209,100" id="43" fill="rgb(117,91,161)" fill-opacity="0.85098" />
<polygon points="217,154 194,122 184,160" id="44" fill="rgb(150,192,185)" fill-opacity="0.85098" />
<ellipse cx="225" cy="197" rx="20" ry="37" id="45" fill="rgb(173,160,170)" fill-opacity="0.85098" />
<polygon points="130,62 106,37 127,7" id="46" fill="rgb(112,113,176)" fill-opacity="0.85098" />
<ellipse cx="169" cy="146" rx="18" ry="10" id="47" fill="rgb(118,27,129)" fill-opacity="0.85098" />
<polygon points="35,158 60,167 51,129" id="48" fill="rgb(173,96,171)" fill-opacity="0.85098" />
<ellipse cx="27" cy="79" rx="14" ry="23" id="49" fill="rgb(186,172,182)" fill-opacity="0.85098" />
<ellipse cx="161" cy="126" rx="13" ry="5" id="50" fill="rgb(52,67,110)" fill-opacity="0.85098" />
<polygon points="67,72 129,64 64,94" id="51" fill="rgb(118,182,200)" fill-opacity="0.85098" />
<ellipse cx="128" cy="249" rx="44" ry="15" id="52" fill="rgb(159,147,167)" fill-opacity="0.85098" />
<polygon points="92,190 161,188 157,179" id="53" fill="rgb(82,43,100)" fill-opacity="0.85098" />
<polygon points="99,115 144,133 154,114" id="54" fill="rgb(120,155,156)" fill-opacity="0.85098" />
<polygon points="70,192 32,161 8,204" id="55" fill="rgb(98,53,125)" fill-opacity="0.85098" />
<ellipse cx="252" cy="31" rx="32" ry="55" id="56" fill="rgb(178,168,178)" fill-opacity="0.85098" />
<polygon points="75,66 115,42 92,80" id="57" fill="rgb(163,216,214)" fill-opacity="0.85098" />
<polygon points="159,203 186,171 153,256" id="58" fill="rgb(174,158,173)" fill-opacity="0.85098" />
<polygon points="193,74 142,42 182,20" id="59" fill="rgb(50,62,125)" fill-opacity="0.85098" />
<polygon points="215,98 165,107 181,131" id="60" fill="rgb(196,86,109)" fill-opacity="0.85098" />
<polygon points="92,205 2,206 89,195" id="61" fill="rgb(178,163,176)" fill-opacity="0.85098" />
<polygon points="146,107 176,124 150,97" id="62" fill="rgb(44,58,99)" fill-opacity="0.85098" />
<polygon points="137,43 182,18 128,0" id="63" fill="rgb(194,174,198)" fill-opacity="0.85098" />
<polygon points="91,114 70,174 86,186" id="64" fill="rgb(55,54,126)" fill-opacity="0.85098" />
<polygon points="154,166 101,179 150,180" id="65" fill="rgb(141,126,128)" fill-opacity="0.85098" />
<ellipse cx="107" cy="108" rx="10" ry="6" id="66" fill="rgb(50,95,123)" fill-opacity="0.85098" />
<polygon points="189,75 162,83 212,100" id="67" fill="rgb(122,68,148)" fill-opacity="0.85098" />
<polygon points="139,99 164,56 169,81" id="68" fill="rgb(185,182,202)" fill-opacity="0.85098" />
<ellipse cx="202" cy="179" rx="5" ry="11" id="69" fill="rgb(61,38,111)" fill-opacity="0.85098" />
<polygon points="109,148 92,157 83,132" id="70" fill="rgb(63,43,115)" fill-opacity="0.85098" />
<ellipse cx="129" cy="225" rx="17" ry="8" id="71" fill="rgb(62,58,113)" fill-opacity="0.85098" />
<polygon points="103,64 115,50 120,104" id="72" fill="rgb(83,184,204)" fill-opacity="0.85098" />
<polygon points="204,187 191,161 178,200" id="73" fill="rgb(113,34,123)" fill-opacity="0.85098" />
<polygon points="221,84 209,30 227,66" id="74" fill="rgb(228,115,111)" fill-opacity="0.85098" />
<polygon points="58,149 91,143 49,114" id="75" fill="rgb(28,79,133)" fill-opacity="0.85098" />
<polygon points="96,209 98,193 122,201" id="76" fill="rgb(176,88,82)" fill-opacity="0.85098" />
<polygon points="5,114 61,0 21,0" id="77" fill="rgb(184,171,180)" fill-opacity="0.85098" />
<polygon points="130,137 144,169 116,170" id="78" fill="rgb(203,205,220)" fill-opacity="0.85098" />
<polygon points="228,150 198,158 240,108" id="79" fill="rgb(114,193,172)" fill-opacity="0.85098" />
<polygon points="49,91 69,126 26,100" id="80" fill="rgb(91,153,191)" fill-opacity="0.85098" />
<polygon points="164,158 164,193 147,149" id="81" fill="rgb(198,77,88)" fill-opacity="0.85098" />
<polygon points="130,37 168,58 130,70" id="82" fill="rgb(186,139,185)" fill-opacity="0.85098" />
<ellipse cx="229" cy="100" rx="10" ry="9" id="83" fill="rgb(70,77,146)" fill-opacity="0.85098" />
<polygon points="77,196 10,203 46,190" id="84" fill="rgb(47,44,105)" fill-opacity="0.85098" />
<polygon points="231,0 225,36 132,0" id="85" fill="rgb(182,171,180)" fill-opacity="0.85098" />
<polygon points="156,68 131,111 146,51" id="86" fill="rgb(209,120,126)" fill-opacity="0.85098" />
<polygon points="110,151 95,157 96,186" id="87" fill="rgb(201,91,99)" fill-opacity="0.85098" />
<polygon points="162,137 168,157 146,148" id="88" fill="rgb(93,28,110)" fill-opacity="0.85098" />
<polygon points="65,114 50,88 64,82" id="89" fill="rgb(184,136,188)" fill-opacity="0.85098" />
<ellipse cx="40" cy="169" rx="13" ry="12" id="90" fill="rgb(123,76,145)" fill-opacity="0.85098" />
<polygon points="40,40 57,69 93,55" id="91" fill="rgb(129,123,176)" fill-opacity="0.85098" />
<ellipse cx="102" cy="189" rx="6" ry="11" id="92" fill="rgb(93,39,78)" fill-opacity="0.85098" />
<polygon points="27,169 33,135 45,136" id="93" fill="rgb(72,48,121)" fill-opacity="0.85098" />
<ellipse cx="66" cy="166" rx="5" ry="12" id="94" fill="rgb(46,155,180)" fill-opacity="0.85098" />
<polygon points="102,121 111,127 93,125" id="95" fill="rgb(29,49,85)" fill-opacity="0.85098" />
<polygon points="156,103 157,83 213,102" id="96" fill="rgb(189,122,148)" fill-opacity="0.85098" />
<polygon points="93,84 101,66 115,91" id="97" fill="rgb(124,123,184)" fill-opacity="0.85098" />
<polygon points="92,193 91,159 99,156" id="98" fill="rgb(166,59,124)" fill-opacity="0.85098" />
<polygon points="130,112 144,99 129,74" id="99" fill="rgb(180,133,125)" fill-opacity="0.85098" />
<polygon points="244,134 272,246 156,256" id="100" fill="rgb(170,156,166)" fill-opacity="0.85098" />
<polygon points="197,81 217,85 212,47" id="101" fill="rgb(115,106,165)" fill-opacity="0.85098" />
<polygon points="99,211 92,219 130,248" id="102" fill="rgb(124,128,154)" fill-opacity="0.85098" />
<ellipse cx="116" cy="155" rx="8" ry="9" id="103" fill="rgb(148,191,188)" fill-opacity="0.85098" />
<ellipse cx="255" cy="123" rx="18" ry="53" id="104" fill="rgb(176,164,174)" fill-opacity="0.85098" />
<polygon points="168,124 126,112 141,105" id="105" fill="rgb(111,141,148)" fill-opacity="0.85098" />
<polygon points="102,142 90,133 167,132" id="106" fill="rgb(157,169,180)" fill-opacity="0.85098" />
<polygon points="59,188 49,162 40,170" id="107" fill="rgb(82,82,142)" fill-opacity="0.85098" />
<polygon points="184,167 175,119 168,140" id="108" fill="rgb(148,38,133)" fill-opacity="0.85098" />
<polygon points="163,194 186,167 165,164" id="109" fill="rgb(191,12,84)" fill-opacity="0.85098" />
<ellipse cx="127" cy="218" rx="11" ry="8" id="110" fill="rgb(90,57,112)" fill-opacity="0.85098" />
<polygon points="180,0 193,67 203,40" id="111" fill="rgb(186,174,185)" fill-opacity="0.85098" />
<polygon points="163,244 139,256 157,220" id="112" fill="rgb(180,168,184)" fill-opacity="0.85098" />
<polygon points="74,141 72,89 104,90" id="113" fill="rgb(50,106,159)" fill-opacity="0.85098" />
<polygon points="209,117 210,106 186,130" id="114" fill="rgb(119,86,169)" fill-opacity="0.85098" />
<ellipse cx="13" cy="184" rx="4" ry="9" id="115" fill="rgb(180,163,174)" fill-opacity="0.85098" />
<ellipse cx="148" cy="212" rx="6" ry="5" id="116" fill="rgb(27,11,64)" fill-opacity="0.85098" />
<polygon points="131,202 98,210 156,210" id="117" fill="rgb(49,17,82)" fill-opacity="0.85098" />
<ellipse cx="156" cy="195" rx="9" ry="6" id="118" fill="rgb(155,91,83)" fill-opacity="0.85098" />
<ellipse cx="8" cy="149" rx="18" ry="45" id="119" fill="rgb(180,165,175)" fill-opacity="0.85098" />
<polygon points="107,138 160,118 132,119" id="120" fill="rgb(144,169,172)" fill-opacity="0.85098" />
<polygon points="205,105 217,96 227,69" id="121" fill="rgb(208,99,103)" fill-opacity="0.85098" />
<ellipse cx="112" cy="171" rx="4" ry="5" id="122" fill="rgb(122,102,101)" fill-opacity="0.85098" />
<polygon points="145,132 156,123 146,125" id="123" fill="rgb(34,44,80)" fill-opacity="0.85098" />
<polygon points="135,105 170,81 141,105" id="124" fill="rgb(161,67,83)" fill-opacity="0.85098" />
<ellipse cx="124" cy="77" rx="5" ry="16" id="125" fill="rgb(159,211,203)" fill-opacity="0.85098" />
<polygon points="150,188 131,202 108,194" id="126" fill="rgb(129,93,139)" fill-opacity="0.85098" />
<ellipse cx="59" cy="181" rx="5" ry="14" id="127" fill="rgb(122,53,138)" fill-opacity="0.85098" />
<polygon points="61,67 70,118 71,97" id="128" fill="rgb(108,164,193)" fill-opacity="0.85098" />
<ellipse cx="124" cy="113" rx="15" ry="4" id="129" fill="rgb(77,125,132)" fill-opacity="0.85098" />
<polygon points="190,96 171,118 159,103" id="130" fill="rgb(183,94,141)" fill-opacity="0.85098" />
<ellipse cx="79" cy="82" rx="9" ry="7" id="131" fill="rgb(121,190,202)" fill-opacity="0.85098" />
<ellipse cx="131" cy="173" rx="25" ry="3" id="132" fill="rgb(125,109,106)" fill-opacity="0.85098" />
<polygon points="214,41 208,28 194,79" id="133" fill="rgb(228,113,113)" fill-opacity="0.85098" />
<ellipse cx="224" cy="251" rx="66" ry="24" id="134" fill="rgb(166,151,162)" fill-opacity="0.85098" />
<polygon points="122,255 138,256 163,204" id="135" fill="rgb(134,134,163)" fill-opacity="0.85098" />
<polygon points="108,101 83,134 91,115" id="136" fill="rgb(32,62,103)" fill-opacity="0.85098" />
<polygon points="80,183 90,156 90,189" id="137" fill="rgb(96,38,121)" fill-opacity="0.85098" />
<polygon points="71,170 81,141 71,132" id="138" fill="rgb(25,59,117)" fill-opacity="0.85098" />
<ellipse cx="11" cy="50" rx="29" ry="59" id="139" fill="rgb(183,170,179)" fill-opacity="0.85098" />
<ellipse cx="77" cy="5" rx="20" ry="19" id="140" fill="rgb(186,174,183)" fill-opacity="0.85098" />
<polygon points="252,0 244,125 223,22" id="141" fill="rgb(179,167,177)" fill-opacity="0.85098" />
<ellipse cx="178" cy="206" rx="29" ry="5" id="142" fill="rgb(172,154,164)" fill-opacity="0.85098" />
<polygon points="96,204 86,188 112,196" id="143" fill="rgb(146,60,74)" fill-opacity="0.85098" />
<polygon points="81,42 84,60 57,76" id="144" fill="rgb(109,106,163)" fill-opacity="0.85098" />
<ellipse cx="186" cy="136" rx="4" ry="7" id="145" fill="rgb(134,47,143)" fill-opacity="0.85098" />
<polygon points="112,98 82,116 97,89" id="146" fill="rgb(68,117,169)" fill-opacity="0.85098" />
<polygon points="192,194 250,173 156,220" id="147" fill="rgb(173,159,171)" fill-opacity="0.85098" />
<ellipse cx="127" cy="241" rx="18" ry="8" id="148" fill="rgb(142,132,163)" fill-opacity="0.85098" />
<polygon points="154,185 139,202 138,193" id="149" fill="rgb(166,128,151)" fill-opacity="0.85098" />
<polygon points="78,31 116,46 77,26" id="150" fill="rgb(144,189,198)" fill-opacity="0.85098" />
<polygon points="199,107 178,136 186,99" id="151" fill="rgb(203,85,92)" fill-opacity="0.85098" />
<ellipse cx="193" cy="144" rx="3" ry="15" id="152" fill="rgb(177,183,188)" fill-opacity="0.85098" />
<polygon points="130,66 126,52 111,38" id="153" fill="rgb(87,97,161)" fill-opacity="0.85098" />
<ellipse cx="29" cy="150" rx="2" ry="10" id="154" fill="rgb(55,41,108)" fill-opacity="0.85098" />
<polygon points="129,77 142,71 137,109" id="155" fill="rgb(187,143,129)" fill-opacity="0.85098" />
<polygon points="236,90 205,115 233,79" id="156" fill="rgb(71,100,158)" fill-opacity="0.85098" />
<polygon points="120,201 137,202 103,185" id="157" fill="rgb(119,105,140)" fill-opacity="0.85098" />
<polygon points="176,24 161,30 162,52" id="158" fill="rgb(45,82,142)" fill-opacity="0.85098" />
<polygon points="66,171 71,200 86,190" id="159" fill="rgb(100,162,182)" fill-opacity="0.85098" />
<polygon points="200,123 238,106 211,139" id="160" fill="rgb(60,170,194)" fill-opacity="0.85098" />
<polygon points="230,150 198,132 203,157" id="161" fill="rgb(115,193,174)" fill-opacity="0.85098" />
<ellipse cx="214" cy="70" rx="3" ry="13" id="162" fill="rgb(115,109,164)" fill-opacity="0.85098" />
<polygon points="95,120 136,121 108,112" id="163" fill="rgb(120,155,157)" fill-opacity="0.85098" />
<polygon points="132,47 145,40 128,0" id="164" fill="rgb(186,159,196)" fill-opacity="0.85098" />
<polygon points="120,232 134,221 132,234" id="165" fill="rgb(48,84,127)" fill-opacity="0.85098" />
<ellipse cx="201" cy="167" rx="5" ry="10" id="166" fill="rgb(36,64,120)" fill-opacity="0.85098" />
<ellipse cx="175" cy="72" rx="13" ry="5" id="167" fill="rgb(120,190,213)" fill-opacity="0.85098" />
<ellipse cx="112" cy="179" rx="7" ry="3" id="168" fill="rgb(171,140,154)" fill-opacity="0.85098" />
<polygon points="25,125 25,109 28,154" id="169" fill="rgb(55,40,97)" fill-opacity="0.85098" />
<polygon points="44,46 66,44 62,75" id="170" fill="rgb(143,139,187)" fill-opacity="0.85098" />
<ellipse cx="17" cy="101" rx="8" ry="38" id="171" fill="rgb(182,168,179)" fill-opacity="0.85098" />
<polygon points="4,206 50,183 28,173" id="172" fill="rgb(116,55,124)" fill-opacity="0.85098" />
<polygon points="182,159 194,121 167,159" id="173" fill="rgb(136,35,138)" fill-opacity="0.85098" />
<ellipse cx="149" cy="138" rx="7" ry="6" id="174" fill="rgb(165,184,198)" fill-opacity="0.85098" />
<polygon points="176,197 174,186 187,171" id="175" fill="rgb(183,159,177)" fill-opacity="0.85098" />
<polygon points="73,133 85,129 88,119" id="176" fill="rgb(69,129,169)" fill-opacity="0.85098" />
<ellipse cx="127" cy="86" rx="2" ry="19" id="177" fill="rgb(178,208,199)" fill-opacity="0.85098" />
<polygon points="83,164 73,138 89,126" id="178" fill="rgb(34,67,124)" fill-opacity="0.85098" />
<polygon points="165,63 149,47 180,66" id="179" fill="rgb(147,175,213)" fill-opacity="0.85098" />
<ellipse cx="100" cy="205" rx="7" ry="3" id="180" fill="rgb(173,116,119)" fill-opacity="0.85098" />
<ellipse cx="141" cy="178" rx="11" ry="4" id="181" fill="rgb(155,127,145)" fill-opacity="0.85098" />
<ellipse cx="144" cy="218" rx="4" ry="9" id="182" fill="rgb(47,20,79)" fill-opacity="0.85098" />
<ellipse cx="131" cy="132" rx="9" ry="7" id="183" fill="rgb(164,181,183)" fill-opacity="0.85098" />
<ellipse cx="56" cy="165" rx="4" ry="9" id="184" fill="rgb(151,81,152)" fill-opacity="0.85098" />
<polygon points="29,164 0,213 0,122" id="185" fill="rgb(178,163,174)" fill-opacity="0.85098" />
<polygon points="94,205 99,204 96,241" id="186" fill="rgb(145,123,131)" fill-opacity="0.85098" />
<polygon points="121,231 107,207 111,226" id="187" fill="rgb(55,21,96)" fill-opacity="0.85098" />
<polygon points="129,33 74,27 128,9" id="188" fill="rgb(126,127,180)" fill-opacity="0.85098" />
<polygon points="141,106 148,102 172,123" id="189" fill="rgb(60,97,121)" fill-opacity="0.85098" />
<ellipse cx="163" cy="161" rx="5" ry="5" id="190" fill="rgb(192,74,110)" fill-opacity="0.85098" />
<ellipse cx="120" cy="95" rx="3" ry="9" id="191" fill="rgb(89,181,202)" fill-opacity="0.85098" />
<polygon points="129,175 128,185 146,182" id="192" fill="rgb(130,72,120)" fill-opacity="0.85098" />
<ellipse cx="230" cy="178" rx="23" ry="17" id="193" fill="rgb(172,160,171)" fill-opacity="0.85098" />
<polygon points="83,197 95,218 0,206" id="194" fill="rgb(177,162,174)" fill-opacity="0.85098" />
<polygon points="0,256 0,229 115,255" id="195" fill="rgb(170,154,163)" fill-opacity="0.85098" />
<polygon points="84,28 114,42 106,39" id="196" fill="rgb(88,99,152)" fill-opacity="0.85098" />
<ellipse cx="239" cy="181" rx="22" ry="31" id="197" fill="rgb(172,159,169)" fill-opacity="0.85098" />
<polygon points="59,194 68,195 65,183" id="198" fill="rgb(88,31,116)" fill-opacity="0.85098" />
<polygon points="106,169 97,184 106,151" id="199" fill="rgb(205,107,97)" fill-opacity="0.85098" />
<polygon points="129,110 113,97 105,69" id="200" fill="rgb(105,172,203)" fill-opacity="0.85098" />
<ellipse cx="34" cy="173" rx="8" ry="12" id="201" fill="rgb(131,68,140)" fill-opacity="0.85098" />
<ellipse cx="48" cy="98" rx="8" ry="8" id="202" fill="rgb(123,147,187)" fill-opacity="0.85098" />
<polygon points="138,210 118,209 142,223" id="203" fill="rgb(86,46,99)" fill-opacity="0.85098" />
<polygon points="105,128 102,131 89,129" id="204" fill="rgb(35,75,122)" fill-opacity="0.85098" />
<polygon points="55,143 31,162 52,131" id="205" fill="rgb(177,106,176)" fill-opacity="0.85098" />
<polygon points="106,171 113,136 112,166" id="206" fill="rgb(186,188,191)" fill-opacity="0.85098" />
<ellipse cx="53" cy="187" rx="5" ry="8" id="207" fill="rgb(72,61,130)" fill-opacity="0.85098" />
<polygon points="114,48 90,56 99,70" id="208" fill="rgb(167,220,218)" fill-opacity="0.85098" />
<polygon points="217,100 225,86 230,69" id="209" fill="rgb(107,179,189)" fill-opacity="0.85098" />
<polygon points="178,159 190,172 190,163" id="210" fill="rgb(124,28,118)" fill-opacity="0.85098" />
<ellipse cx="179" cy="45" rx="9" ry="13" id="211" fill="rgb(49,53,118)" fill-opacity="0.85098" />
<ellipse cx="157" cy="124" rx="6" ry="2" id="212" fill="rgb(17,16,57)" fill-opacity="0.85098" />
<polygon points="97,185 131,191 101,181" id="213" fill="rgb(65,28,92)" fill-opacity="0.85098" />
<polygon points="101,224 109,239 129,236" id="214" fill="rgb(121,129,160)" fill-opacity="0.85098" />
<polygon points="170,26 147,43 147,39" id="215" fill="rgb(52,45,114)" fill-opacity="0.85098" />
<ellipse cx="197" cy="67" rx="4" ry="8" id="216" fill="rgb(228,117,119)" fill-opacity="0.85098" />
<polygon points="40,24 7,115 40,90" id="217" fill="rgb(184,171,182)" fill-opacity="0.85098" />
<polygon points="155,173 141,141 141,156" id="218" fill="rgb(167,197,196)" fill-opacity="0.85098" />
<polygon points="144,187 152,180 159,178" id="219" fill="rgb(41,18,72)" fill-opacity="0.85098" />
<polygon points="178,19 210,0 103,0" id="220" fill="rgb(184,172,181)" fill-opacity="0.85098" />
<polygon points="0,91 27,160 12,5" id="221" fill="rgb(182,168,179)" fill-opacity="0.85098" />
<polygon points="97,205 117,200 107,191" id="222" fill="rgb(174,78,67)" fill-opacity="0.85098" />
<ellipse cx="119" cy="219" rx="3" ry="11" id="223" fill="rgb(88,29,113)" fill-opacity="0.85098" />
<polygon points="142,204 144,196 163,199" id="224" fill="rgb(184,104,91)" fill-opacity="0.85098" />
<ellipse cx="80" cy="171" rx="7" ry="8" id="225" fill="rgb(80,49,131)" fill-opacity="0.85098" />
<ellipse cx="130" cy="161" rx="6" ry="11" id="226" fill="rgb(209,207,223)" fill-opacity="0.85098" />
<ellipse cx="113" cy="131" rx="2" ry="3" id="227" fill="rgb(68,98,105)" fill-opacity="0.85098" />
<polygon points="155,211 146,225 160,212" id="228" fill="rgb(107,117,152)" fill-opacity="0.85098" />
<ellipse cx="71" cy="4" rx="24" ry="22" id="229" fill="rgb(185,174,182)" fill-opacity="0.85098" />
<polygon points="228,64 232,73 238,101" id="230" fill="rgb(93,94,139)" fill-opacity="0.85098" />
<polygon points="91,82 115,106 122,106" id="231" fill="rgb(90,91,153)" fill-opacity="0.85098" />
<ellipse cx="158" cy="78" rx="5" ry="9" id="232" fill="rgb(189,176,200)" fill-opacity="0.85098" />
<ellipse cx="129" cy="102" rx="1" ry="10" id="233" fill="rgb(179,186,181)" fill-opacity="0.85098" />
<ellipse cx="83" cy="76" rx="9" ry="10" id="234" fill="rgb(133,195,203)" fill-opacity="0.85098" />
<polygon points="168,79 156,66 162,56" id="235" fill="rgb(165,164,205)" fill-opacity="0.85098" />
<ellipse cx="163" cy="207" rx="5" ry="10" id="236" fill="rgb(165,144,153)" fill-opacity="0.85098" />
<polygon points="171,203 208,214 253,171" id="237" fill="rgb(172,159,169)" fill-opacity="0.85098" />
<polygon points="71,89 75,102 88,91" id="238" fill="rgb(42,88,144)" fill-opacity="0.85098" />
<polygon points="84,92 93,85 97,74" id="239" fill="rgb(60,90,141)" fill-opacity="0.85098" />
<polygon points="214,94 223,78 224,57" id="240" fill="rgb(226,109,108)" fill-opacity="0.85098" />
<ellipse cx="227" cy="153" rx="1" ry="2" id="241" fill="rgb(14,26,108)" fill-opacity="0.85098" />
<polygon points="187,71 169,81 165,57" id="242" fill="rgb(121,191,212)" fill-opacity="0.85098" />
<ellipse cx="189" cy="152" rx="3" ry="8" id="243" fill="rgb(187,178,187)" fill-opacity="0.85098" />
<ellipse cx="120" cy="150" rx="3" ry="11" id="244" fill="rgb(136,187,181)" fill-opacity="0.85098" />
<ellipse cx="41" cy="135" rx="5" ry="8" id="245" fill="rgb(52,55,120)" fill-opacity="0.85098" />
<polygon points="60,111 26,101 63,121" id="246" fill="rgb(73,153,192)" fill-opacity="0.85098" />
<polygon points="130,197 107,187 138,193" id="247" fill="rgb(121,59,124)" fill-opacity="0.85098" />
<polygon points="145,237 106,245 128,256" id="248" fill="rgb(151,138,165)" fill-opacity="0.85098" />
<ellipse cx="165" cy="183" rx="4" ry="12" id="249" fill="rgb(189,25,76)" fill-opacity="0.85098" />
<polygon points="210,94 182,76 216,84" id="250" fill="rgb(131,89,161)" fill-opacity="0.85098" />
<polygon points="137,256 256,256 256,220" id="251" fill="rgb(166,152,162)" fill-opacity="0.85098" />
<polygon points="207,113 215,101 228,111" id="252" fill="rgb(55,111,165)" fill-opacity="0.85098" />
<polygon points="154,15 142,39 180,20" id="253" fill="rgb(198,181,205)" fill-opacity="0.85098" />
<ellipse cx="142" cy="131" rx="3" ry="4" id="254" fill="rgb(86,127,133)" fill-opacity="0.85098" />
<ellipse cx="52" cy="131" rx="2" ry="3" id="255" fill="rgb(160,126,192)" fill-opacity="0.85098" />
<polygon points="146,108 123,117 145,105" id="256" fill="rgb(75,118,129)" fill-opacity="0.85098" />
<polygon points="194,64 204,32 178,0" id="257" fill="rgb(184,173,183)" fill-opacity="0.85098" />
<polygon points="140,136 151,128 155,127" id="258" fill="rgb(113,147,173)" fill-opacity="0.85098" />
<polygon points="28,107 46,136 53,119" id="259" fill="rgb(52,79,143)" fill-opacity="0.85098" />
<polygon points="68,155 44,113 68,128" id="260" fill="rgb(29,86,140)" fill-opacity="0.85098" />
<ellipse cx="119" cy="125" rx="9" ry="4" id="261" fill="rgb(131,168,170)" fill-opacity="0.85098" />
<ellipse cx="108" cy="130" rx="3" ry="3" id="262" fill="rgb(121,166,173)" fill-opacity="0.85098" />
<ellipse cx="88" cy="103" rx="6" ry="13" id="263" fill="rgb(53,116,167)" fill-opacity="0.85098" />
</svg>