<?xml version="1.0" standalone="no"?>
<svg xmlns="http://www.w3.org/2000/svg" version="1.2" baseProfile="tiny" width="256" height="144" viewBox="0 0 256 144">
<rect x="0" y="0" width="256" height="144" id="0" fill="rgb(62,72,85)" fill-opacity="1" />
<polygon points="46,118 136,42 211,118" id="1" fill="rgb(161,214,236)" fill-opacity="0.815686" />
<polygon points="177,98 207,127 5,117" id="2" fill="rgb(57,103,195)" fill-opacity="0.815686" />
<polygon points="256,142 87,0 256,0" id="3" fill="rgb(38,36,40)" fill-opacity="0.815686" />
<polygon points="63,90 143,53 211,112" id="4" fill="rgb(188,229,210)" fill-opacity="0.815686" />
<polygon points="0,141 167,0 0,0" id="5" fill="rgb(39,37,43)" fill-opacity="0.815686" />
<polygon points="82,74 23,112 54,130" id="6" fill="rgb(42,61,154)" fill-opacity="0.815686" />
<polygon points="0,121 256,142 0,144" id="7" fill="rgb(37,37,45)" fill-opacity="0.815686" />
<polygon points="133,39 78,117 139,82" id="8" fill="rgb(199,241,217)" fill-opacity="0.815686" />
<polygon points="256,144 8,144 256,118" id="9" fill="rgb(41,42,50)" fill-opacity="0.815686" />
<polygon points="96,77 122,55 65,86" id="10" fill="rgb(121,120,129)" fill-opacity="0.815686" />
<polygon points="225,122 148,116 157,97" id="11" fill="rgb(70,119,199)" fill-opacity="0.815686" />
<polygon points="75,78 63,95 104,124" id="12" fill="rgb(122,186,220)" fill-opacity="0.815686" />
<polygon points="182,118 82,126 226,125" id="13" fill="rgb(44,70,139)" fill-opacity="0.815686" />
<polygon points="147,106 139,39 134,71" id="14" fill="rgb(134,173,190)" fill-opacity="0.815686" />
<polygon points="137,41 145,54 223,125" id="15" fill="rgb(136,126,126)" fill-opacity="0.815686" />
<polygon points="48,104 36,120 105,127" id="16" fill="rgb(31,59,168)" fill-opacity="0.815686" />
<polygon points="101,93 139,111 148,105" id="17" fill="rgb(120,188,235)" fill-opacity="0.815686" />
<polygon points="79,73 0,140 54,80" id="18" fill="rgb(62,50,76)" fill-opacity="0.815686" />
<polygon points="168,106 222,120 209,107" id="19" fill="rgb(126,184,215)" fill-opacity="0.815686" />
<polygon points="70,98 77,117 114,103" id="20" fill="rgb(141,205,229)" fill-opacity="0.815686" />
<polygon points="112,95 146,123 90,118" id="21" fill="rgb(66,123,219)" fill-opacity="0.815686" />
<polygon points="87,74 186,0 11,0" id="22" fill="rgb(43,43,48)" fill-opacity="0.815686" />
<polygon points="126,54 87,99 141,90" id="23" fill="rgb(209,248,219)" fill-opacity="0.815686" />
<polygon points="112,111 116,106 175,120" id="24" fill="rgb(41,80,195)" fill-opacity="0.815686" />
<polygon points="61,120 75,107 68,102" id="25" fill="rgb(60,114,208)" fill-opacity="0.815686" />
<polygon points="155,88 138,48 174,98" id="26" fill="rgb(221,251,219)" fill-opacity="0.815686" />
<polygon points="172,112 138,117 170,95" id="27" fill="rgb(61,107,201)" fill-opacity="0.815686" />
<polygon points="76,81 113,71 88,88" id="28" fill="rgb(177,215,194)" fill-opacity="0.815686" />
<polygon points="147,51 218,115 129,31" id="29" fill="rgb(91,51,73)" fill-opacity="0.815686" />
<polygon points="31,126 20,117 148,133" id="30" fill="rgb(38,48,103)" fill-opacity="0.815686" />
<polygon points="54,104 54,125 66,96" id="31" fill="rgb(17,26,143)" fill-opacity="0.815686" />
<polygon points="93,120 103,106 124,122" id="32" fill="rgb(88,153,230)" fill-opacity="0.815686" />
<polygon points="195,103 177,107 159,64" id="33" fill="rgb(165,208,196)" fill-opacity="0.815686" />
<polygon points="150,100 171,95 97,93" id="34" fill="rgb(198,246,221)" fill-opacity="0.815686" />
<polygon points="24,124 45,0 0,141" id="35" fill="rgb(42,43,47)" fill-opacity="0.815686" />
<polygon points="199,129 230,126 225,118" id="36" fill="rgb(48,60,84)" fill-opacity="0.815686" />
<polygon points="134,99 114,68 131,55" id="37" fill="rgb(221,255,221)" fill-opacity="0.815686" />
<polygon points="104,71 91,74 126,42" id="38" fill="rgb(99,52,82)" fill-opacity="0.815686" />
<polygon points="192,97 185,90 227,119" id="39" fill="rgb(115,104,117)" fill-opacity="0.815686" />
<polygon points="78,89 75,77 64,84" id="40" fill="rgb(83,121,167)" fill-opacity="0.815686" />
<polygon points="98,106 115,94 83,81" id="41" fill="rgb(186,238,222)" fill-opacity="0.815686" />
<polygon points="240,122 256,144 125,144" id="42" fill="rgb(41,42,47)" fill-opacity="0.815686" />
<polygon points="73,80 96,72 76,75" id="43" fill="rgb(105,113,104)" fill-opacity="0.815686" />
<polygon points="197,115 183,114 177,124" id="44" fill="rgb(40,76,162)" fill-opacity="0.815686" />
<polygon points="114,73 105,79 118,82" id="45" fill="rgb(168,202,211)" fill-opacity="0.815686" />
<polygon points="136,121 93,121 118,130" id="46" fill="rgb(51,90,171)" fill-opacity="0.815686" />
<polygon points="138,126 195,126 92,133" id="47" fill="rgb(43,55,90)" fill-opacity="0.815686" />
<polygon points="136,11 0,130 0,0" id="48" fill="rgb(42,43,48)" fill-opacity="0.815686" />
<polygon points="175,79 200,101 147,44" id="49" fill="rgb(83,49,67)" fill-opacity="0.815686" />
<polygon points="176,107 173,91 201,109" id="50" fill="rgb(162,222,223)" fill-opacity="0.815686" />
<polygon points="138,41 144,56 126,43" id="51" fill="rgb(147,168,153)" fill-opacity="0.815686" />
<polygon points="113,53 112,64 130,41" id="52" fill="rgb(59,57,89)" fill-opacity="0.815686" />
<polygon points="92,144 132,129 159,130" id="53" fill="rgb(42,43,49)" fill-opacity="0.815686" />
<polygon points="132,32 194,93 240,127" id="54" fill="rgb(60,47,58)" fill-opacity="0.815686" />
<polygon points="126,43 85,74 102,67" id="55" fill="rgb(77,45,62)" fill-opacity="0.815686" />
<polygon points="127,99 145,93 99,83" id="56" fill="rgb(209,252,220)" fill-opacity="0.815686" />
<polygon points="98,123 91,120 107,111" id="57" fill="rgb(98,174,231)" fill-opacity="0.815686" />
<polygon points="94,68 97,73 71,74" id="58" fill="rgb(73,51,60)" fill-opacity="0.815686" />
<polygon points="69,126 24,127 103,132" id="59" fill="rgb(40,44,71)" fill-opacity="0.815686" />
<polygon points="170,93 159,95 155,68" id="60" fill="rgb(222,255,223)" fill-opacity="0.815686" />
<polygon points="136,37 169,70 150,56" id="61" fill="rgb(97,45,74)" fill-opacity="0.815686" />
<polygon points="89,64 22,117 32,102" id="62" fill="rgb(68,53,79)" fill-opacity="0.815686" />
<polygon points="140,101 131,108 154,105" id="63" fill="rgb(116,173,228)" fill-opacity="0.815686" />
<polygon points="214,124 221,120 107,128" id="64" fill="rgb(52,74,123)" fill-opacity="0.815686" />
<polygon points="100,129 138,124 59,122" id="65" fill="rgb(37,60,141)" fill-opacity="0.815686" />
<polygon points="158,126 176,129 204,126" id="66" fill="rgb(47,62,98)" fill-opacity="0.815686" />
<polygon points="208,120 193,119 183,107" id="67" fill="rgb(75,136,200)" fill-opacity="0.815686" />
<polygon points="78,114 90,115 80,98" id="68" fill="rgb(147,209,230)" fill-opacity="0.815686" />
<polygon points="143,84 138,52 133,54" id="69" fill="rgb(127,172,189)" fill-opacity="0.815686" />
<polygon points="141,49 149,89 145,101" id="70" fill="rgb(150,194,198)" fill-opacity="0.815686" />
<polygon points="52,123 60,86 63,105" id="71" fill="rgb(21,29,139)" fill-opacity="0.815686" />
<polygon points="162,73 211,118 153,60" id="72" fill="rgb(167,199,173)" fill-opacity="0.815686" />
<polygon points="22,121 69,79 64,87" id="73" fill="rgb(37,40,105)" fill-opacity="0.815686" />
<polygon points="101,74 72,80 76,81" id="74" fill="rgb(134,170,156)" fill-opacity="0.815686" />
<polygon points="88,71 156,19 59,74" id="75" fill="rgb(46,42,49)" fill-opacity="0.815686" />
<polygon points="176,92 173,107 163,73" id="76" fill="rgb(151,202,211)" fill-opacity="0.815686" />
<polygon points="116,62 109,82 100,84" id="77" fill="rgb(205,242,211)" fill-opacity="0.815686" />
<polygon points="82,84 94,102 70,100" id="78" fill="rgb(148,206,219)" fill-opacity="0.815686" />
<polygon points="143,125 155,112 174,105" id="79" fill="rgb(46,81,179)" fill-opacity="0.815686" />
<polygon points="145,122 120,120 154,105" id="80" fill="rgb(63,111,208)" fill-opacity="0.815686" />
<polygon points="142,0 177,78 236,116" id="81" fill="rgb(42,43,48)" fill-opacity="0.815686" />
<polygon points="41,122 58,100 35,109" id="82" fill="rgb(43,68,177)" fill-opacity="0.815686" />
<polygon points="205,101 228,125 218,117" id="83" fill="rgb(96,103,126)" fill-opacity="0.815686" />
<polygon points="191,114 187,111 180,116" id="84" fill="rgb(33,69,166)" fill-opacity="0.815686" />
<polygon points="49,141 0,96 0,144" id="85" fill="rgb(42,43,48)" fill-opacity="0.815686" />
<polygon points="121,98 144,91 109,87" id="86" fill="rgb(211,251,220)" fill-opacity="0.815686" />
<polygon points="184,84 228,117 215,109" id="87" fill="rgb(74,59,74)" fill-opacity="0.815686" />
<polygon points="135,104 121,85 108,88" id="88" fill="rgb(206,251,220)" fill-opacity="0.815686" />
<polygon points="218,128 231,116 233,123" id="89" fill="rgb(45,50,64)" fill-opacity="0.815686" />
<polygon points="63,78 42,96 47,95" id="90" fill="rgb(87,53,67)" fill-opacity="0.815686" />
<polygon points="217,115 211,120 191,97" id="91" fill="rgb(134,183,189)" fill-opacity="0.815686" />
<polygon points="148,96 177,94 181,89" id="92" fill="rgb(203,244,218)" fill-opacity="0.815686" />
<polygon points="122,104 116,105 130,116" id="93" fill="rgb(31,64,195)" fill-opacity="0.815686" />
<polygon points="145,78 137,65 136,45" id="94" fill="rgb(121,166,185)" fill-opacity="0.815686" />
<polygon points="32,119 44,97 25,122" id="95" fill="rgb(39,41,99)" fill-opacity="0.815686" />
<polygon points="103,130 50,122 97,127" id="96" fill="rgb(37,49,114)" fill-opacity="0.815686" />
<polygon points="159,71 147,76 161,93" id="97" fill="rgb(224,255,223)" fill-opacity="0.815686" />
<polygon points="155,47 129,36 129,38" id="98" fill="rgb(72,52,68)" fill-opacity="0.815686" />
<polygon points="99,122 122,119 112,121" id="99" fill="rgb(75,129,217)" fill-opacity="0.815686" />
<polygon points="96,83 108,85 101,76" id="100" fill="rgb(207,243,210)" fill-opacity="0.815686" />
<polygon points="136,127 127,130 179,130" id="101" fill="rgb(42,48,70)" fill-opacity="0.815686" />
<polygon points="210,40 135,24 154,55" id="102" fill="rgb(42,43,48)" fill-opacity="0.815686" />
<polygon points="135,104 136,86 132,103" id="103" fill="rgb(197,249,225)" fill-opacity="0.815686" />
<polygon points="183,108 168,107 167,116" id="104" fill="rgb(86,130,213)" fill-opacity="0.815686" />
<polygon points="95,79 115,62 97,79" id="105" fill="rgb(150,177,161)" fill-opacity="0.815686" />
<polygon points="77,118 72,98 91,98" id="106" fill="rgb(146,207,227)" fill-opacity="0.815686" />
<polygon points="182,93 139,47 140,52" id="107" fill="rgb(186,209,182)" fill-opacity="0.815686" />
<polygon points="172,70 141,41 148,50" id="108" fill="rgb(77,42,63)" fill-opacity="0.815686" />
<polygon points="80,116 100,125 111,127" id="109" fill="rgb(31,70,166)" fill-opacity="0.815686" />
<polygon points="0,0 87,68 175,0" id="110" fill="rgb(42,43,48)" fill-opacity="0.815686" />
<polygon points="103,56 133,38 89,71" id="111" fill="rgb(57,43,55)" fill-opacity="0.815686" />
<polygon points="140,40 128,42 128,43" id="112" fill="rgb(100,98,101)" fill-opacity="0.815686" />
<polygon points="0,144 71,128 98,144" id="113" fill="rgb(42,43,48)" fill-opacity="0.815686" />
<polygon points="167,100 177,111 144,110" id="114" fill="rgb(64,111,202)" fill-opacity="0.815686" />
<polygon points="102,94 139,90 97,77" id="115" fill="rgb(207,248,216)" fill-opacity="0.815686" />
<polygon points="161,124 182,121 169,121" id="116" fill="rgb(39,58,128)" fill-opacity="0.815686" />
<polygon points="140,38 170,60 118,26" id="117" fill="rgb(51,42,52)" fill-opacity="0.815686" />
<polygon points="67,88 62,90 75,76" id="118" fill="rgb(79,101,154)" fill-opacity="0.815686" />
<polygon points="151,94 149,85 147,60" id="119" fill="rgb(215,249,218)" fill-opacity="0.815686" />
<polygon points="106,92 80,83 95,105" id="120" fill="rgb(187,237,222)" fill-opacity="0.815686" />
<polygon points="61,77 64,77 29,105" id="121" fill="rgb(62,46,53)" fill-opacity="0.815686" />
<polygon points="147,122 134,124 167,124" id="122" fill="rgb(47,70,135)" fill-opacity="0.815686" />
<polygon points="202,130 229,123 197,129" id="123" fill="rgb(43,52,71)" fill-opacity="0.815686" />
<polygon points="94,82 97,79 97,101" id="124" fill="rgb(173,214,216)" fill-opacity="0.815686" />
<polygon points="86,115 97,118 110,99" id="125" fill="rgb(89,159,227)" fill-opacity="0.815686" />
<polygon points="256,144 256,99 207,144" id="126" fill="rgb(42,43,48)" fill-opacity="0.815686" />
<polygon points="104,102 96,116 116,98" id="127" fill="rgb(92,156,226)" fill-opacity="0.815686" />
<polygon points="141,55 171,81 152,65" id="128" fill="rgb(198,225,199)" fill-opacity="0.815686" />
<polygon points="49,125 64,109 59,95" id="129" fill="rgb(21,33,147)" fill-opacity="0.815686" />
<polygon points="67,96 73,122 77,120" id="130" fill="rgb(41,88,187)" fill-opacity="0.815686" />
<polygon points="189,131 253,144 21,141" id="131" fill="rgb(42,43,48)" fill-opacity="0.815686" />
<polygon points="179,74 211,96 196,96" id="132" fill="rgb(46,44,50)" fill-opacity="0.815686" />
<polygon points="68,76 61,85 62,91" id="133" fill="rgb(32,35,91)" fill-opacity="0.815686" />
<polygon points="121,126 124,114 137,114" id="134" fill="rgb(58,103,203)" fill-opacity="0.815686" />
<polygon points="124,51 111,64 128,46" id="135" fill="rgb(81,105,127)" fill-opacity="0.815686" />
<polygon points="202,94 256,136 131,27" id="136" fill="rgb(44,43,48)" fill-opacity="0.815686" />
<polygon points="68,144 146,130 221,144" id="137" fill="rgb(42,43,48)" fill-opacity="0.815686" />
<polygon points="178,115 177,119 169,118" id="138" fill="rgb(89,137,204)" fill-opacity="0.815686" />
<polygon points="128,43 97,65 132,37" id="139" fill="rgb(65,43,63)" fill-opacity="0.815686" />
<polygon points="99,0 150,18 99,60" id="140" fill="rgb(42,43,48)" fill-opacity="0.815686" />
<polygon points="95,107 77,87 71,88" id="141" fill="rgb(107,161,201)" fill-opacity="0.815686" />
<polygon points="142,125 193,121 192,117" id="142" fill="rgb(40,65,140)" fill-opacity="0.815686" />
<polygon points="16,119 47,90 39,92" id="143" fill="rgb(51,45,52)" fill-opacity="0.815686" />
<polygon points="115,127 116,123 144,122" id="144" fill="rgb(54,88,162)" fill-opacity="0.815686" />
<polygon points="155,65 137,43 132,41" id="145" fill="rgb(161,177,155)" fill-opacity="0.815686" />
<polygon points="23,111 35,128 24,124" id="146" fill="rgb(46,47,71)" fill-opacity="0.815686" />
<polygon points="116,95 118,99 97,111" id="147" fill="rgb(95,161,229)" fill-opacity="0.815686" />
<polygon points="125,59 134,97 134,47" id="148" fill="rgb(212,249,219)" fill-opacity="0.815686" />
<polygon points="46,139 0,103 0,135" id="149" fill="rgb(42,43,48)" fill-opacity="0.815686" />
<polygon points="212,115 195,110 197,104" id="150" fill="rgb(139,206,217)" fill-opacity="0.815686" />
<polygon points="191,115 214,120 191,112" id="151" fill="rgb(93,159,214)" fill-opacity="0.815686" />
<polygon points="151,66 147,71 150,97" id="152" fill="rgb(215,250,220)" fill-opacity="0.815686" />
<polygon points="111,45 97,65 0,84" id="153" fill="rgb(42,43,48)" fill-opacity="0.815686" />
<polygon points="81,92 89,98 89,104" id="154" fill="rgb(142,204,222)" fill-opacity="0.815686" />
<polygon points="134,51 134,98 133,49" id="155" fill="rgb(193,233,213)" fill-opacity="0.815686" />
<polygon points="149,45 243,129 167,60" id="156" fill="rgb(45,44,50)" fill-opacity="0.815686" />
<polygon points="96,67 44,25 93,67" id="157" fill="rgb(42,43,48)" fill-opacity="0.815686" />
<polygon points="256,127 146,15 178,75" id="158" fill="rgb(42,43,48)" fill-opacity="0.815686" />
<polygon points="169,88 173,89 197,109" id="159" fill="rgb(172,227,217)" fill-opacity="0.815686" />
<polygon points="32,119 54,122 47,120" id="160" fill="rgb(38,56,150)" fill-opacity="0.815686" />
<polygon points="228,119 192,121 204,123" id="161" fill="rgb(69,106,155)" fill-opacity="0.815686" />
<polygon points="226,120 225,115 218,125" id="162" fill="rgb(63,75,108)" fill-opacity="0.815686" />
<polygon points="100,127 72,119 86,116" id="163" fill="rgb(25,58,165)" fill-opacity="0.815686" />
<polygon points="136,112 114,105 122,114" id="164" fill="rgb(35,70,197)" fill-opacity="0.815686" />
<polygon points="193,123 187,127 202,129" id="165" fill="rgb(41,50,83)" fill-opacity="0.815686" />
<polygon points="154,84 159,95 160,69" id="166" fill="rgb(219,253,221)" fill-opacity="0.815686" />
<polygon points="233,126 228,53 256,144" id="167" fill="rgb(42,43,48)" fill-opacity="0.815686" />
<polygon points="136,92 136,84 126,67" id="168" fill="rgb(222,255,222)" fill-opacity="0.815686" />
<polygon points="241,144 218,102 245,144" id="169" fill="rgb(45,46,53)" fill-opacity="0.815686" />
<polygon points="90,138 82,135 141,130" id="170" fill="rgb(42,44,59)" fill-opacity="0.815686" />
<polygon points="57,74 65,78 86,67" id="171" fill="rgb(53,43,53)" fill-opacity="0.815686" />
<polygon points="49,89 21,117 29,107" id="172" fill="rgb(65,52,63)" fill-opacity="0.815686" />
<polygon points="255,0 256,144 228,144" id="173" fill="rgb(42,43,48)" fill-opacity="0.815686" />
<polygon points="105,135 63,134 131,144" id="174" fill="rgb(42,42,49)" fill-opacity="0.815686" />
<polygon points="0,86 42,93 113,17" id="175" fill="rgb(42,43,48)" fill-opacity="0.815686" />
<polygon points="100,133 60,127 85,129" id="176" fill="rgb(39,43,73)" fill-opacity="0.815686" />
<polygon points="149,101 119,97 128,95" id="177" fill="rgb(201,251,226)" fill-opacity="0.815686" />
<polygon points="88,67 31,41 40,78" id="178" fill="rgb(42,43,48)" fill-opacity="0.815686" />
<polygon points="176,94 168,98 175,105" id="179" fill="rgb(130,188,217)" fill-opacity="0.815686" />
<polygon points="189,94 201,98 215,109" id="180" fill="rgb(99,73,87)" fill-opacity="0.815686" />
<polygon points="171,120 150,113 166,115" id="181" fill="rgb(49,90,184)" fill-opacity="0.815686" />
<polygon points="85,104 84,112 76,90" id="182" fill="rgb(157,215,230)" fill-opacity="0.815686" />
<polygon points="40,126 53,124 27,119" id="183" fill="rgb(39,50,118)" fill-opacity="0.815686" />
<polygon points="75,124 87,128 78,120" id="184" fill="rgb(29,39,121)" fill-opacity="0.815686" />
<polygon points="22,127 20,113 33,138" id="185" fill="rgb(43,43,51)" fill-opacity="0.815686" />
<polygon points="147,71 145,60 157,71" id="186" fill="rgb(220,245,213)" fill-opacity="0.815686" />
<polygon points="2,129 119,139 51,144" id="187" fill="rgb(42,43,48)" fill-opacity="0.815686" />
<polygon points="156,35 157,0 112,28" id="188" fill="rgb(42,43,48)" fill-opacity="0.815686" />
<polygon points="213,91 242,27 220,108" id="189" fill="rgb(42,43,48)" fill-opacity="0.815686" />
<polygon points="169,101 160,100 169,96" id="190" fill="rgb(71,115,195)" fill-opacity="0.815686" />
<polygon points="230,144 256,144 256,0" id="191" fill="rgb(42,43,48)" fill-opacity="0.815686" />
<polygon points="28,125 56,126 48,129" id="192" fill="rgb(40,44,78)" fill-opacity="0.815686" />
<polygon points="147,129 113,136 101,137" id="193" fill="rgb(42,43,53)" fill-opacity="0.815686" />
<polygon points="193,77 189,86 211,37" id="194" fill="rgb(42,43,48)" fill-opacity="0.815686" />
<polygon points="0,144 29,103 27,99" id="195" fill="rgb(43,43,48)" fill-opacity="0.815686" />
<polygon points="0,105 45,144 0,144" id="196" fill="rgb(42,43,48)" fill-opacity="0.815686" />
<polygon points="177,104 206,111 171,102" id="197" fill="rgb(160,219,225)" fill-opacity="0.815686" />
<polygon points="0,34 40,6 0,21" id="198" fill="rgb(44,43,48)" fill-opacity="0.815686" />
<polygon points="97,71 118,52 104,70" id="199" fill="rgb(114,64,98)" fill-opacity="0.815686" />
<polygon points="140,73 140,54 134,61" id="200" fill="rgb(124,169,188)" fill-opacity="0.815686" />
<polygon points="163,79 154,67 140,53" id="201" fill="rgb(207,234,204)" fill-opacity="0.815686" />
<polygon points="86,112 91,108 77,93" id="202" fill="rgb(157,217,230)" fill-opacity="0.815686" />
<polygon points="231,118 233,123 204,95" id="203" fill="rgb(54,50,61)" fill-opacity="0.815686" />
<polygon points="56,79 61,74 80,72" id="204" fill="rgb(60,45,57)" fill-opacity="0.815686" />
<polygon points="129,95 140,94 138,80" id="205" fill="rgb(213,253,223)" fill-opacity="0.815686" />
<polygon points="44,99 24,123 39,101" id="206" fill="rgb(41,40,82)" fill-opacity="0.815686" />
<polygon points="64,128 85,144 0,144" id="207" fill="rgb(42,43,48)" fill-opacity="0.815686" />
<polygon points="134,64 119,66 123,97" id="208" fill="rgb(222,254,221)" fill-opacity="0.815686" />
<polygon points="173,91 162,92 159,96" id="209" fill="rgb(219,255,223)" fill-opacity="0.815686" />
<polygon points="147,103 144,66 137,68" id="210" fill="rgb(142,184,198)" fill-opacity="0.815686" />
<polygon points="64,103 65,105 64,110" id="211" fill="rgb(23,61,174)" fill-opacity="0.815686" />
<polygon points="157,66 191,98 194,99" id="212" fill="rgb(155,182,153)" fill-opacity="0.815686" />
<polygon points="202,144 248,112 256,139" id="213" fill="rgb(42,43,48)" fill-opacity="0.815686" />
<polygon points="42,92 77,60 0,125" id="214" fill="rgb(44,43,48)" fill-opacity="0.815686" />
<polygon points="11,114 61,144 9,114" id="215" fill="rgb(42,43,51)" fill-opacity="0.815686" />
<polygon points="113,67 100,75 98,79" id="216" fill="rgb(178,210,186)" fill-opacity="0.815686" />
<polygon points="214,100 203,96 221,107" id="217" fill="rgb(48,45,51)" fill-opacity="0.815686" />
<polygon points="56,131 83,144 0,142" id="218" fill="rgb(42,43,48)" fill-opacity="0.815686" />
<polygon points="19,144 15,82 0,129" id="219" fill="rgb(42,43,48)" fill-opacity="0.815686" />
<polygon points="133,64 119,64 129,55" id="220" fill="rgb(218,254,220)" fill-opacity="0.815686" />
<polygon points="163,96 152,76 158,67" id="221" fill="rgb(224,254,221)" fill-opacity="0.815686" />
<polygon points="60,91 35,111 54,98" id="222" fill="rgb(34,40,129)" fill-opacity="0.815686" />
<polygon points="218,127 205,130 201,132" id="223" fill="rgb(42,46,57)" fill-opacity="0.815686" />
<polygon points="167,95 158,97 161,98" id="224" fill="rgb(219,254,227)" fill-opacity="0.815686" />
<polygon points="200,97 227,119 226,116" id="225" fill="rgb(80,65,85)" fill-opacity="0.815686" />
<polygon points="192,90 194,95 216,107" id="226" fill="rgb(71,54,65)" fill-opacity="0.815686" />
<polygon points="200,136 179,144 235,122" id="227" fill="rgb(42,43,49)" fill-opacity="0.815686" />
<polygon points="131,100 123,95 127,82" id="228" fill="rgb(207,249,218)" fill-opacity="0.815686" />
<polygon points="150,35 222,108 231,63" id="229" fill="rgb(42,43,48)" fill-opacity="0.815686" />
<polygon points="138,139 193,144 37,144" id="230" fill="rgb(42,43,48)" fill-opacity="0.815686" />
<polygon points="79,71 59,34 107,54" id="231" fill="rgb(42,43,48)" fill-opacity="0.815686" />
<polygon points="62,99 51,96 65,79" id="232" fill="rgb(31,36,111)" fill-opacity="0.815686" />
<polygon points="55,10 4,10 24,0" id="233" fill="rgb(42,43,48)" fill-opacity="0.815686" />
<polygon points="46,129 87,132 79,129" id="234" fill="rgb(41,42,57)" fill-opacity="0.815686" />
<polygon points="72,34 114,50 49,61" id="235" fill="rgb(42,43,48)" fill-opacity="0.815686" />
<polygon points="199,110 172,102 175,106" id="236" fill="rgb(154,209,230)" fill-opacity="0.815686" />
<polygon points="216,69 228,48 223,79" id="237" fill="rgb(42,43,48)" fill-opacity="0.815686" />
<polygon points="137,30 122,45 95,66" id="238" fill="rgb(56,42,53)" fill-opacity="0.815686" />
<polygon points="111,92 94,108 93,101" id="239" fill="rgb(183,242,224)" fill-opacity="0.815686" />
<polygon points="120,34 164,34 126,23" id="240" fill="rgb(42,43,48)" fill-opacity="0.815686" />
<polygon points="64,57 75,29 66,79" id="241" fill="rgb(42,43,48)" fill-opacity="0.815686" />
<polygon points="66,101 59,115 61,102" id="242" fill="rgb(23,41,158)" fill-opacity="0.815686" />
<polygon points="202,60 211,48 226,109" id="243" fill="rgb(42,43,48)" fill-opacity="0.815686" />
<polygon points="218,118 212,108 200,102" id="244" fill="rgb(124,147,157)" fill-opacity="0.815686" />
<polygon points="193,91 205,98 233,107" id="245" fill="rgb(46,44,49)" fill-opacity="0.815686" />
<polygon points="113,89 120,98 135,79" id="246" fill="rgb(212,252,219)" fill-opacity="0.815686" />
<polygon points="256,34 256,130 199,88" id="247" fill="rgb(42,43,48)" fill-opacity="0.815686" />
<polygon points="148,23 155,47 178,26" id="248" fill="rgb(42,43,48)" fill-opacity="0.815686" />
<polygon points="200,131 207,139 177,144" id="249" fill="rgb(42,43,48)" fill-opacity="0.815686" />
<polygon points="30,68 94,68 77,37" id="250" fill="rgb(42,43,48)" fill-opacity="0.815686" />
<polygon points="121,102 113,107 114,104" id="251" fill="rgb(49,104,211)" fill-opacity="0.815686" />
<polygon points="108,97 103,90 109,76" id="252" fill="rgb(208,251,217)" fill-opacity="0.815686" />
<polygon points="184,142 177,144 203,144" id="253" fill="rgb(42,42,49)" fill-opacity="0.815686" />
<polygon points="169,80 179,99 176,92" id="254" fill="rgb(156,203,209)" fill-opacity="0.815686" />
<polygon points="141,34 105,12 115,28" id="255" fill="rgb(42,43,48)" fill-opacity="0.815686" />
<polygon points="208,88 188,62 213,57" id="256" fill="rgb(42,43,48)" fill-opacity="0.815686" />
<polygon points="232,126 238,46 256,88" id="257" fill="rgb(42,43,48)" fill-opacity="0.815686" />
<polygon points="131,73 115,73 140,89" id="258" fill="rgb(220,254,221)" fill-opacity="0.815686" />
<polygon points="142,38 151,51 161,57" id="259" fill="rgb(53,42,52)" fill-opacity="0.815686" />
<polygon points="8,144 55,135 -5,122" id="260" fill="rgb(42,43,48)" fill-opacity="0.815686" />
<polygon points="237,103 219,74 199,92" id="261" fill="rgb(42,43,48)" fill-opacity="0.815686" />
<polygon points="127,15 156,9 114,50" id="262" fill="rgb(42,43,48)" fill-opacity="0.815686" />
<polygon points="238,120 227,112 220,109" id="263" fill="rgb(45,45,51)" fill-opacity="0.815686" />
<polygon points="118,128 112,127 37,122" id="264" fill="rgb(38,56,126)" fill-opacity="0.815686" />
<polygon points="139,127 143,126 189,130" id="265" fill="rgb(44,53,82)" fill-opacity="0.815686" />
<polygon points="256,133 234,116 256,148" id="266" fill="rgb(42,43,48)" fill-opacity="0.815686" />
<polygon points="63,94 44,105 58,95" id="267" fill="rgb(33,45,146)" fill-opacity="0.815686" />
<polygon points="45,133 43,132 70,131" id="268" fill="rgb(42,42,48)" fill-opacity="0.815686" />
<polygon points="32,11 56,11 8,19" id="269" fill="rgb(44,43,48)" fill-opacity="0.815686" />
<polygon points="205,84 235,30 201,77" id="270" fill="rgb(42,43,48)" fill-opacity="0.815686" />
<polygon points="88,91 83,89 87,104" id="271" fill="rgb(155,215,223)" fill-opacity="0.815686" />
<polygon points="91,86 96,100 100,101" id="272" fill="rgb(197,248,225)" fill-opacity="0.815686" />
<polygon points="146,101 150,102 159,92" id="273" fill="rgb(199,247,210)" fill-opacity="0.815686" />
<polygon points="103,106 101,113 123,116" id="274" fill="rgb(74,136,228)" fill-opacity="0.815686" />
<polygon points="256,101 162,55 168,47" id="275" fill="rgb(42,43,48)" fill-opacity="0.815686" />
<polygon points="104,131 136,128 84,130" id="276" fill="rgb(43,56,100)" fill-opacity="0.815686" />
<polygon points="185,130 174,131 194,131" id="277" fill="rgb(42,45,57)" fill-opacity="0.815686" />
<polygon points="56,130 32,129 79,128" id="278" fill="rgb(41,44,60)" fill-opacity="0.815686" />
<polygon points="201,107 197,102 189,101" id="279" fill="rgb(152,203,178)" fill-opacity="0.815686" />
<polygon points="73,131 102,143 0,144" id="280" fill="rgb(42,43,48)" fill-opacity="0.815686" />
<polygon points="186,129 187,128 196,129" id="281" fill="rgb(40,44,66)" fill-opacity="0.815686" />
<polygon points="37,15 74,0 60,32" id="282" fill="rgb(42,43,48)" fill-opacity="0.815686" />
<polygon points="150,70 156,85 154,71" id="283" fill="rgb(226,255,223)" fill-opacity="0.815686" />
<polygon points="163,68 201,106 186,93" id="284" fill="rgb(139,155,137)" fill-opacity="0.815686" />
<polygon points="97,77 94,77 79,81" id="285" fill="rgb(151,187,168)" fill-opacity="0.815686" />
<polygon points="133,32 128,36 124,0" id="286" fill="rgb(42,43,48)" fill-opacity="0.815686" />
<polygon points="36,144 32,126 21,167" id="287" fill="rgb(42,43,48)" fill-opacity="0.815686" />
<polygon points="76,101 77,91 72,97" id="288" fill="rgb(161,218,220)" fill-opacity="0.815686" />
<polygon points="58,88 62,79 51,92" id="289" fill="rgb(88,53,80)" fill-opacity="0.815686" />
<polygon points="119,83 110,66 114,82" id="290" fill="rgb(165,201,207)" fill-opacity="0.815686" />
<polygon points="209,64 227,54 247,36" id="291" fill="rgb(42,43,48)" fill-opacity="0.815686" />
<polygon points="45,81 25,88 48,88" id="292" fill="rgb(42,43,48)" fill-opacity="0.815686" />
<polygon points="150,130 127,142 160,144" id="293" fill="rgb(42,43,48)" fill-opacity="0.815686" />
<polygon points="223,92 256,144 256,43" id="294" fill="rgb(42,43,48)" fill-opacity="0.815686" />
<polygon points="104,79 124,51 134,46" id="295" fill="rgb(191,225,199)" fill-opacity="0.815686" />
<polygon points="163,69 151,61 192,104" id="296" fill="rgb(179,211,184)" fill-opacity="0.815686" />
<polygon points="104,89 126,90 132,84" id="297" fill="rgb(208,249,216)" fill-opacity="0.815686" />
<polygon points="256,138 183,27 256,99" id="298" fill="rgb(42,43,48)" fill-opacity="0.815686" />
</svg>