<?xml version="1.0" standalone="no"?>
<svg xmlns="http://www.w3.org/2000/svg" version="1.2" baseProfile="tiny" width="256" height="172" viewBox="0 0 256 172">
<rect x="0" y="0" width="256" height="172" id="0" fill="rgb(61,67,78)" fill-opacity="1" />
<polygon points="44,144 210,147 139,69" id="1" fill="rgb(152,184,204)" fill-opacity="1" />
<polygon points="220,147 71,151 118,127" id="2" fill="rgb(78,118,196)" fill-opacity="1" />
<polygon points="256,170 50,0 256,0" id="3" fill="rgb(43,43,48)" fill-opacity="1" />
<polygon points="66,112 78,157 31,149" id="4" fill="rgb(49,67,151)" fill-opacity="1" />
<polygon points="206,2 0,0 0,165" id="5" fill="rgb(43,43,49)" fill-opacity="1" />
<polygon points="77,115 217,144 133,77" id="6" fill="rgb(188,218,210)" fill-opacity="1" />
<polygon points="0,151 -2,182 256,165" id="7" fill="rgb(42,43,51)" fill-opacity="1" />
<polygon points="64,127 113,92 62,115" id="8" fill="rgb(120,143,166)" fill-opacity="1" />
<polygon points="127,134 219,145 160,127" id="9" fill="rgb(106,147,204)" fill-opacity="1" />
<polygon points="130,120 134,78 81,130" id="10" fill="rgb(211,241,223)" fill-opacity="1" />
<polygon points="98,156 40,152 87,144" id="11" fill="rgb(42,57,131)" fill-opacity="1" />
<polygon points="256,144 256,172 127,172" id="12" fill="rgb(42,43,49)" fill-opacity="1" />
<polygon points="145,119 130,72 139,71" id="13" fill="rgb(151,179,183)" fill-opacity="1" />
<polygon points="74,102 58,126 17,146" id="14" fill="rgb(52,50,96)" fill-opacity="1" />
<polygon points="168,124 173,144 107,156" id="15" fill="rgb(70,105,187)" fill-opacity="1" />
<polygon points="186,153 188,144 116,154" id="16" fill="rgb(54,73,134)" fill-opacity="1" />
<polygon points="100,103 86,106 142,64" id="17" fill="rgb(113,105,116)" fill-opacity="1" />
<polygon points="186,122 214,137 218,149" id="18" fill="rgb(137,157,160)" fill-opacity="1" />
<polygon points="144,116 95,104 134,132" id="19" fill="rgb(212,244,222)" fill-opacity="1" />
<polygon points="132,68 137,69 217,149" id="20" fill="rgb(134,132,132)" fill-opacity="1" />
<polygon points="134,63 89,92 92,104" id="21" fill="rgb(60,46,56)" fill-opacity="1" />
<polygon points="142,118 124,90 119,127" id="22" fill="rgb(222,250,226)" fill-opacity="1" />
<polygon points="94,133 87,119 136,69" id="23" fill="rgb(201,231,215)" fill-opacity="1" />
<polygon points="115,120 96,135 75,109" id="24" fill="rgb(194,232,222)" fill-opacity="1" />
<polygon points="148,134 168,117 145,85" id="25" fill="rgb(210,237,220)" fill-opacity="1" />
<polygon points="216,143 170,131 171,117" id="26" fill="rgb(169,211,212)" fill-opacity="1" />
<polygon points="172,96 179,110 113,46" id="27" fill="rgb(75,50,65)" fill-opacity="1" />
<polygon points="225,147 171,146 197,152" id="28" fill="rgb(69,97,152)" fill-opacity="1" />
<polygon points="70,118 65,139 72,137" id="29" fill="rgb(90,133,199)" fill-opacity="1" />
<polygon points="27,145 40,136 118,157" id="30" fill="rgb(44,61,151)" fill-opacity="1" />
<polygon points="120,127 113,122 97,150" id="31" fill="rgb(101,155,218)" fill-opacity="1" />
<polygon points="12,148 62,107 27,149" id="32" fill="rgb(59,51,69)" fill-opacity="1" />
<polygon points="72,108 97,107 98,100" id="33" fill="rgb(139,155,148)" fill-opacity="1" />
<polygon points="66,136 46,154 62,117" id="34" fill="rgb(33,41,142)" fill-opacity="1" />
<polygon points="112,138 136,144 122,133" id="35" fill="rgb(47,75,190)" fill-opacity="1" />
<polygon points="130,75 100,109 131,71" id="36" fill="rgb(182,205,193)" fill-opacity="1" />
<polygon points="100,149 79,117 94,148" id="37" fill="rgb(129,182,217)" fill-opacity="1" />
<polygon points="78,100 64,113 84,102" id="38" fill="rgb(86,84,102)" fill-opacity="1" />
<polygon points="172,70 116,65 103,0" id="39" fill="rgb(42,43,48)" fill-opacity="1" />
<polygon points="199,134 133,70 162,97" id="40" fill="rgb(167,183,167)" fill-opacity="1" />
<polygon points="148,131 134,93 145,92" id="41" fill="rgb(156,186,194)" fill-opacity="1" />
<polygon points="92,99 140,52 59,104" id="42" fill="rgb(45,43,49)" fill-opacity="1" />
<polygon points="188,158 176,163 134,157" id="43" fill="rgb(43,45,53)" fill-opacity="1" />
<polygon points="124,132 148,139 118,124" id="44" fill="rgb(126,179,223)" fill-opacity="1" />
<polygon points="123,159 106,151 30,151" id="45" fill="rgb(43,54,114)" fill-opacity="1" />
<polygon points="195,126 170,101 225,143" id="46" fill="rgb(78,63,74)" fill-opacity="1" />
<polygon points="153,96 173,120 160,127" id="47" fill="rgb(220,247,226)" fill-opacity="1" />
<polygon points="73,131 89,123 89,144" id="48" fill="rgb(158,205,220)" fill-opacity="1" />
<polygon points="152,86 151,83 182,108" id="49" fill="rgb(93,55,75)" fill-opacity="1" />
<polygon points="157,128 189,142 172,147" id="50" fill="rgb(80,117,191)" fill-opacity="1" />
<polygon points="185,138 182,147 194,150" id="51" fill="rgb(45,68,151)" fill-opacity="1" />
<polygon points="167,115 153,90 189,132" id="52" fill="rgb(184,216,208)" fill-opacity="1" />
<polygon points="105,109 77,109 134,130" id="53" fill="rgb(204,236,219)" fill-opacity="1" />
<polygon points="100,105 78,111 115,96" id="54" fill="rgb(177,200,184)" fill-opacity="1" />
<polygon points="0,172 0,92 35,168" id="55" fill="rgb(42,43,48)" fill-opacity="1" />
<polygon points="87,144 113,150 109,126" id="56" fill="rgb(98,152,218)" fill-opacity="1" />
<polygon points="3,134 0,0 251,0" id="57" fill="rgb(42,43,48)" fill-opacity="1" />
<polygon points="114,97 134,112 133,75" id="58" fill="rgb(223,248,225)" fill-opacity="1" />
<polygon points="80,105 111,94 118,84" id="59" fill="rgb(93,74,91)" fill-opacity="1" />
<polygon points="134,137 159,140 125,149" id="60" fill="rgb(70,108,198)" fill-opacity="1" />
<polygon points="96,106 152,129 119,126" id="61" fill="rgb(211,246,223)" fill-opacity="1" />
<polygon points="114,98 111,106 117,109" id="62" fill="rgb(177,198,206)" fill-opacity="1" />
<polygon points="56,151 64,131 74,146" id="63" fill="rgb(54,86,174)" fill-opacity="1" />
<polygon points="180,147 204,152 144,155" id="64" fill="rgb(52,67,119)" fill-opacity="1" />
<polygon points="256,0 256,164 135,58" id="65" fill="rgb(42,43,48)" fill-opacity="1" />
<polygon points="141,137 160,129 131,138" id="66" fill="rgb(119,165,218)" fill-opacity="1" />
<polygon points="181,110 199,123 164,88" id="67" fill="rgb(54,46,53)" fill-opacity="1" />
<polygon points="49,150 138,151 126,157" id="68" fill="rgb(47,65,135)" fill-opacity="1" />
<polygon points="188,172 26,156 13,172" id="69" fill="rgb(42,43,47)" fill-opacity="1" />
<polygon points="55,126 36,137 40,152" id="70" fill="rgb(50,66,161)" fill-opacity="1" />
<polygon points="109,88 94,99 55,106" id="71" fill="rgb(58,47,55)" fill-opacity="1" />
<polygon points="160,94 164,97 168,115" id="72" fill="rgb(170,196,184)" fill-opacity="1" />
<polygon points="161,126 163,102 146,96" id="73" fill="rgb(227,251,228)" fill-opacity="1" />
<polygon points="108,90 127,74 122,81" id="74" fill="rgb(76,73,96)" fill-opacity="1" />
<polygon points="77,121 69,127 77,143" id="75" fill="rgb(160,205,219)" fill-opacity="1" />
<polygon points="201,131 172,105 186,115" id="76" fill="rgb(93,75,85)" fill-opacity="1" />
<polygon points="8,154 79,155 65,153" id="77" fill="rgb(43,46,74)" fill-opacity="1" />
<polygon points="107,160 165,153 133,153" id="78" fill="rgb(50,61,94)" fill-opacity="1" />
<polygon points="152,122 152,109 160,127" id="79" fill="rgb(177,211,204)" fill-opacity="1" />
<polygon points="168,125 165,145 176,148" id="80" fill="rgb(83,121,193)" fill-opacity="1" />
<polygon points="118,118 119,118 99,134" id="81" fill="rgb(184,226,224)" fill-opacity="1" />
<polygon points="212,134 224,147 189,121" id="82" fill="rgb(100,91,103)" fill-opacity="1" />
<polygon points="156,147 131,140 125,135" id="83" fill="rgb(58,93,190)" fill-opacity="1" />
<polygon points="207,148 218,144 210,138" id="84" fill="rgb(132,166,186)" fill-opacity="1" />
<polygon points="179,144 189,138 189,142" id="85" fill="rgb(49,78,161)" fill-opacity="1" />
<polygon points="75,156 122,159 103,161" id="86" fill="rgb(43,47,80)" fill-opacity="1" />
<polygon points="26,150 46,124 49,127" id="87" fill="rgb(46,46,104)" fill-opacity="1" />
<polygon points="138,134 103,112 110,109" id="88" fill="rgb(213,247,224)" fill-opacity="1" />
<polygon points="56,172 6,132 0,172" id="89" fill="rgb(42,43,48)" fill-opacity="1" />
<polygon points="60,107 37,133 61,112" id="90" fill="rgb(79,55,76)" fill-opacity="1" />
<polygon points="98,107 94,129 94,107" id="91" fill="rgb(188,218,213)" fill-opacity="1" />
<polygon points="190,159 214,154 233,148" id="92" fill="rgb(48,54,69)" fill-opacity="1" />
<polygon points="201,122 235,153 237,151" id="93" fill="rgb(54,50,58)" fill-opacity="1" />
<polygon points="91,97 1,111 168,13" id="94" fill="rgb(42,43,48)" fill-opacity="1" />
</svg>