<?xml version="1.0" standalone="no"?>
<svg xmlns="http://www.w3.org/2000/svg" version="1.2" baseProfile="tiny" width="256" height="172" viewBox="0 0 256 172">
<rect x="0" y="0" width="256" height="172" id="0" fill="rgb(59,67,79)" fill-opacity="1" />
<polygon points="136,72 42,145 209,144" id="1" fill="rgb(164,217,238)" fill-opacity="0.815686" />
<polygon points="181,149 33,150 60,115" id="2" fill="rgb(65,113,204)" fill-opacity="0.815686" />
<polygon points="256,166 45,0 256,0" id="3" fill="rgb(39,38,41)" fill-opacity="0.815686" />
<polygon points="76,146 73,107 164,98" id="4" fill="rgb(187,235,218)" fill-opacity="0.815686" />
<polygon points="197,0 0,0 0,171" id="5" fill="rgb(40,39,45)" fill-opacity="0.815686" />
<polygon points="154,88 102,97 212,145" id="6" fill="rgb(190,227,206)" fill-opacity="0.815686" />
<polygon points="163,129 233,151 81,154" id="7" fill="rgb(57,101,189)" fill-opacity="0.815686" />
<polygon points="77,101 57,155 20,149" id="8" fill="rgb(38,52,145)" fill-opacity="0.815686" />
<polygon points="144,129 87,123 132,70" id="9" fill="rgb(204,243,216)" fill-opacity="0.815686" />
<polygon points="0,170 256,172 256,148" id="10" fill="rgb(38,39,46)" fill-opacity="0.815686" />
<polygon points="155,127 233,151 189,122" id="11" fill="rgb(133,180,195)" fill-opacity="0.815686" />
<polygon points="0,172 0,145 175,172" id="12" fill="rgb(40,41,49)" fill-opacity="0.815686" />
<polygon points="134,66 151,85 136,121" id="13" fill="rgb(152,183,182)" fill-opacity="0.815686" />
<polygon points="70,135 81,102 66,116" id="14" fill="rgb(102,156,198)" fill-opacity="0.815686" />
<polygon points="72,155 189,147 198,157" id="15" fill="rgb(42,61,121)" fill-opacity="0.815686" />
<polygon points="216,134 235,153 221,149" id="16" fill="rgb(61,57,80)" fill-opacity="0.815686" />
<polygon points="117,122 82,139 102,151" id="17" fill="rgb(106,176,231)" fill-opacity="0.815686" />
<polygon points="132,70 88,106 109,96" id="18" fill="rgb(104,86,111)" fill-opacity="0.815686" />
<polygon points="149,90 148,133 170,120" id="19" fill="rgb(211,248,219)" fill-opacity="0.815686" />
<polygon points="110,160 29,150 88,147" id="20" fill="rgb(32,49,128)" fill-opacity="0.815686" />
<polygon points="85,103 0,0 220,0" id="21" fill="rgb(42,43,48)" fill-opacity="0.815686" />
<polygon points="107,134 132,147 122,129" id="22" fill="rgb(38,81,204)" fill-opacity="0.815686" />
<polygon points="116,128 136,138 159,130" id="23" fill="rgb(114,177,232)" fill-opacity="0.815686" />
<polygon points="133,66 187,122 169,95" id="24" fill="rgb(121,84,97)" fill-opacity="0.815686" />
<polygon points="177,118 208,140 174,134" id="25" fill="rgb(166,223,219)" fill-opacity="0.815686" />
<polygon points="139,77 169,122 151,108" id="26" fill="rgb(224,251,219)" fill-opacity="0.815686" />
<polygon points="83,98 12,157 53,112" id="27" fill="rgb(66,52,85)" fill-opacity="0.815686" />
<polygon points="108,129 68,123 77,143" id="28" fill="rgb(149,211,226)" fill-opacity="0.815686" />
<polygon points="147,129 113,118 121,88" id="29" fill="rgb(215,253,221)" fill-opacity="0.815686" />
<polygon points="209,150 220,146 155,126" id="30" fill="rgb(99,156,210)" fill-opacity="0.815686" />
<polygon points="126,146 171,123 161,146" id="31" fill="rgb(58,104,203)" fill-opacity="0.815686" />
<polygon points="89,144 109,136 131,150" id="32" fill="rgb(78,141,229)" fill-opacity="0.815686" />
<polygon points="158,91 158,96 200,135" id="33" fill="rgb(162,188,159)" fill-opacity="0.815686" />
<polygon points="130,61 217,136 198,128" id="34" fill="rgb(75,47,63)" fill-opacity="0.815686" />
<polygon points="77,113 96,139 70,111" id="35" fill="rgb(100,159,201)" fill-opacity="0.815686" />
<polygon points="51,150 65,129 59,121" id="36" fill="rgb(16,24,141)" fill-opacity="0.815686" />
<polygon points="219,172 256,81 256,172" id="37" fill="rgb(42,43,48)" fill-opacity="0.815686" />
<polygon points="104,98 72,111 73,104" id="38" fill="rgb(112,118,117)" fill-opacity="0.815686" />
<polygon points="0,111 0,172 45,172" id="39" fill="rgb(42,43,48)" fill-opacity="0.815686" />
<polygon points="58,140 59,149 90,146" id="40" fill="rgb(37,82,184)" fill-opacity="0.815686" />
<polygon points="140,118 158,120 137,93" id="41" fill="rgb(148,192,201)" fill-opacity="0.815686" />
<polygon points="229,148 162,154 205,155" id="42" fill="rgb(53,74,113)" fill-opacity="0.815686" />
<polygon points="200,129 229,149 199,124" id="43" fill="rgb(99,81,101)" fill-opacity="0.815686" />
<polygon points="0,0 0,166 154,0" id="44" fill="rgb(42,43,48)" fill-opacity="0.815686" />
<polygon points="97,162 136,155 206,156" id="45" fill="rgb(43,50,71)" fill-opacity="0.815686" />
<polygon points="115,90 120,120 108,97" id="46" fill="rgb(183,220,208)" fill-opacity="0.815686" />
<polygon points="141,122 128,84 113,97" id="47" fill="rgb(221,254,221)" fill-opacity="0.815686" />
<polygon points="72,124 63,124 68,109" id="48" fill="rgb(99,150,206)" fill-opacity="0.815686" />
<polygon points="256,163 179,108 157,79" id="49" fill="rgb(46,44,50)" fill-opacity="0.815686" />
<polygon points="166,106 175,136 186,132" id="50" fill="rgb(158,211,219)" fill-opacity="0.815686" />
<polygon points="31,147 56,142 53,127" id="51" fill="rgb(36,61,177)" fill-opacity="0.815686" />
<polygon points="149,55 93,102 103,86" id="52" fill="rgb(74,46,67)" fill-opacity="0.815686" />
<polygon points="107,120 143,122 134,130" id="53" fill="rgb(201,251,224)" fill-opacity="0.815686" />
<polygon points="84,115 97,134 123,116" id="54" fill="rgb(192,242,222)" fill-opacity="0.815686" />
<polygon points="167,148 115,153 164,142" id="55" fill="rgb(53,91,178)" fill-opacity="0.815686" />
<polygon points="42,150 59,147 62,124" id="56" fill="rgb(21,35,149)" fill-opacity="0.815686" />
<polygon points="85,143 89,139 85,113" id="57" fill="rgb(156,217,226)" fill-opacity="0.815686" />
<polygon points="136,94 148,110 137,81" id="58" fill="rgb(126,172,191)" fill-opacity="0.815686" />
<polygon points="133,133 107,129 115,125" id="59" fill="rgb(85,151,228)" fill-opacity="0.815686" />
<polygon points="133,125 99,118 109,108" id="60" fill="rgb(209,252,217)" fill-opacity="0.815686" />
<polygon points="43,150 103,162 112,160" id="61" fill="rgb(39,45,86)" fill-opacity="0.815686" />
<polygon points="163,139 170,129 179,147" id="62" fill="rgb(74,120,206)" fill-opacity="0.815686" />
<polygon points="114,149 151,148 142,142" id="63" fill="rgb(63,112,207)" fill-opacity="0.815686" />
<polygon points="172,121 161,126 161,118" id="64" fill="rgb(222,255,226)" fill-opacity="0.815686" />
<polygon points="90,103 70,109 102,107" id="65" fill="rgb(141,175,160)" fill-opacity="0.815686" />
<polygon points="134,75 135,70 173,108" id="66" fill="rgb(165,182,160)" fill-opacity="0.815686" />
<polygon points="24,150 27,138 70,97" id="67" fill="rgb(67,51,74)" fill-opacity="0.815686" />
<polygon points="93,99 79,103 141,56" id="68" fill="rgb(57,43,52)" fill-opacity="0.815686" />
<polygon points="168,75 192,0 1,20" id="69" fill="rgb(42,43,48)" fill-opacity="0.815686" />
<polygon points="90,104 105,96 104,101" id="70" fill="rgb(129,108,116)" fill-opacity="0.815686" />
<polygon points="177,142 153,128 167,126" id="71" fill="rgb(70,115,200)" fill-opacity="0.815686" />
<polygon points="95,105 112,99 88,116" id="72" fill="rgb(185,219,194)" fill-opacity="0.815686" />
<polygon points="161,126 163,102 147,95" id="73" fill="rgb(222,255,222)" fill-opacity="0.815686" />
<polygon points="0,166 220,172 223,156" id="74" fill="rgb(42,43,49)" fill-opacity="0.815686" />
<polygon points="136,76 134,105 143,110" id="75" fill="rgb(130,172,191)" fill-opacity="0.815686" />
<polygon points="126,105 134,118 131,76" id="76" fill="rgb(218,254,221)" fill-opacity="0.815686" />
<polygon points="56,128 32,140 71,107" id="77" fill="rgb(36,44,125)" fill-opacity="0.815686" />
<polygon points="163,139 142,154 160,139" id="78" fill="rgb(38,68,164)" fill-opacity="0.815686" />
<polygon points="160,103 145,108 157,112" id="79" fill="rgb(221,253,223)" fill-opacity="0.815686" />
<polygon points="126,156 124,153 73,149" id="80" fill="rgb(37,69,156)" fill-opacity="0.815686" />
<polygon points="32,153 30,151 59,155" id="81" fill="rgb(39,46,98)" fill-opacity="0.815686" />
<polygon points="125,112 133,68 132,127" id="82" fill="rgb(212,249,217)" fill-opacity="0.815686" />
<polygon points="79,115 83,123 90,123" id="83" fill="rgb(155,215,227)" fill-opacity="0.815686" />
<polygon points="183,13 92,96 29,113" id="84" fill="rgb(42,43,48)" fill-opacity="0.815686" />
<polygon points="49,124 50,116 71,97" id="85" fill="rgb(85,52,68)" fill-opacity="0.815686" />
<polygon points="74,137 98,134 78,145" id="86" fill="rgb(146,209,231)" fill-opacity="0.815686" />
<polygon points="43,119 15,147 91,80" id="87" fill="rgb(53,45,52)" fill-opacity="0.815686" />
<polygon points="0,172 62,156 116,172" id="88" fill="rgb(42,43,48)" fill-opacity="0.815686" />
<polygon points="235,172 94,172 140,157" id="89" fill="rgb(42,43,48)" fill-opacity="0.815686" />
<polygon points="173,115 162,95 164,106" id="90" fill="rgb(162,197,183)" fill-opacity="0.815686" />
<polygon points="79,157 129,157 119,159" id="91" fill="rgb(41,54,101)" fill-opacity="0.815686" />
<polygon points="188,137 176,149 195,152" id="92" fill="rgb(32,61,149)" fill-opacity="0.815686" />
<polygon points="148,127 147,87 152,100" id="93" fill="rgb(207,242,217)" fill-opacity="0.815686" />
<polygon points="93,9 135,33 65,107" id="94" fill="rgb(42,43,48)" fill-opacity="0.815686" />
<polygon points="88,102 69,101 71,104" id="95" fill="rgb(82,65,75)" fill-opacity="0.815686" />
<polygon points="99,154 68,147 85,146" id="96" fill="rgb(26,57,167)" fill-opacity="0.815686" />
<polygon points="180,114 229,150 198,129" id="97" fill="rgb(113,108,117)" fill-opacity="0.815686" />
<polygon points="181,134 192,135 178,122" id="98" fill="rgb(177,235,221)" fill-opacity="0.815686" />
<polygon points="114,105 108,112 118,106" id="99" fill="rgb(168,203,212)" fill-opacity="0.815686" />
<polygon points="126,127 112,128 98,140" id="100" fill="rgb(83,148,225)" fill-opacity="0.815686" />
<polygon points="95,109 100,127 93,112" id="101" fill="rgb(170,210,219)" fill-opacity="0.815686" />
<polygon points="169,0 108,0 165,34" id="102" fill="rgb(43,43,48)" fill-opacity="0.815686" />
<polygon points="229,150 205,156 231,146" id="103" fill="rgb(48,61,88)" fill-opacity="0.815686" />
<polygon points="133,63 168,93 178,109" id="104" fill="rgb(87,46,69)" fill-opacity="0.815686" />
<polygon points="30,145 23,148 46,123" id="105" fill="rgb(46,44,88)" fill-opacity="0.815686" />
<polygon points="124,54 166,92 151,74" id="106" fill="rgb(57,42,54)" fill-opacity="0.815686" />
<polygon points="119,111 130,107 117,102" id="107" fill="rgb(222,253,222)" fill-opacity="0.815686" />
<polygon points="171,135 167,144 182,137" id="108" fill="rgb(86,130,214)" fill-opacity="0.815686" />
<polygon points="195,136 198,134 153,90" id="109" fill="rgb(175,212,184)" fill-opacity="0.815686" />
<polygon points="147,64 126,0 94,61" id="110" fill="rgb(42,43,48)" fill-opacity="0.815686" />
<polygon points="190,155 217,157 165,160" id="111" fill="rgb(42,48,65)" fill-opacity="0.815686" />
<polygon points="111,138 120,131 133,143" id="112" fill="rgb(33,69,196)" fill-opacity="0.815686" />
<polygon points="25,150 36,149 21,143" id="113" fill="rgb(44,47,84)" fill-opacity="0.815686" />
<polygon points="41,156 34,156 23,147" id="114" fill="rgb(41,44,72)" fill-opacity="0.815686" />
<polygon points="100,99 58,105 64,101" id="115" fill="rgb(69,49,61)" fill-opacity="0.815686" />
<polygon points="137,65 114,85 105,98" id="116" fill="rgb(78,87,114)" fill-opacity="0.815686" />
<polygon points="189,124 197,130 167,101" id="117" fill="rgb(142,162,140)" fill-opacity="0.815686" />
<polygon points="69,99 66,110 62,113" id="118" fill="rgb(38,37,71)" fill-opacity="0.815686" />
<polygon points="140,82 146,110 143,118" id="119" fill="rgb(135,179,192)" fill-opacity="0.815686" />
<polygon points="147,106 160,105 154,94" id="120" fill="rgb(222,252,219)" fill-opacity="0.815686" />
<polygon points="34,124 23,144 13,155" id="121" fill="rgb(48,46,53)" fill-opacity="0.815686" />
<polygon points="88,153 100,151 116,151" id="122" fill="rgb(29,61,156)" fill-opacity="0.815686" />
<polygon points="133,60 59,105 30,118" id="123" fill="rgb(43,43,48)" fill-opacity="0.815686" />
<polygon points="217,136 173,105 198,124" id="124" fill="rgb(72,54,66)" fill-opacity="0.815686" />
<polygon points="131,93 120,127 133,101" id="125" fill="rgb(217,253,220)" fill-opacity="0.815686" />
<polygon points="26,146 17,172 0,160" id="126" fill="rgb(42,43,48)" fill-opacity="0.815686" />
<polygon points="113,123 78,109 100,132" id="127" fill="rgb(187,238,222)" fill-opacity="0.815686" />
<polygon points="74,135 90,140 74,122" id="128" fill="rgb(149,209,225)" fill-opacity="0.815686" />
<polygon points="107,108 96,111 120,90" id="129" fill="rgb(202,239,209)" fill-opacity="0.815686" />
<polygon points="232,143 234,172 226,134" id="130" fill="rgb(44,44,51)" fill-opacity="0.815686" />
<polygon points="189,139 210,146 193,147" id="131" fill="rgb(87,156,215)" fill-opacity="0.815686" />
<polygon points="65,106 76,93 65,103" id="132" fill="rgb(48,42,52)" fill-opacity="0.815686" />
<polygon points="85,141 96,150 95,143" id="133" fill="rgb(99,176,235)" fill-opacity="0.815686" />
<polygon points="117,82 94,100 98,101" id="134" fill="rgb(112,55,86)" fill-opacity="0.815686" />
<polygon points="30,142 61,117 70,107" id="135" fill="rgb(38,40,104)" fill-opacity="0.815686" />
<polygon points="152,129 152,127 176,116" id="136" fill="rgb(206,248,218)" fill-opacity="0.815686" />
<polygon points="144,92 134,71 142,102" id="137" fill="rgb(123,171,183)" fill-opacity="0.815686" />
<polygon points="134,144 137,140 123,134" id="138" fill="rgb(33,78,195)" fill-opacity="0.815686" />
<polygon points="106,109 100,121 133,118" id="139" fill="rgb(207,250,216)" fill-opacity="0.815686" />
<polygon points="208,127 256,32 172,98" id="140" fill="rgb(42,43,48)" fill-opacity="0.815686" />
<polygon points="112,148 94,138 88,145" id="141" fill="rgb(88,159,230)" fill-opacity="0.815686" />
<polygon points="132,72 112,92 134,67" id="142" fill="rgb(118,144,144)" fill-opacity="0.815686" />
<polygon points="208,172 256,172 256,128" id="143" fill="rgb(42,43,48)" fill-opacity="0.815686" />
<polygon points="42,134 58,129 38,150" id="144" fill="rgb(44,72,181)" fill-opacity="0.815686" />
<polygon points="144,153 151,148 173,151" id="145" fill="rgb(42,62,132)" fill-opacity="0.815686" />
<polygon points="160,97 143,96 160,94" id="146" fill="rgb(207,233,204)" fill-opacity="0.815686" />
<polygon points="97,129 117,122 95,125" id="147" fill="rgb(180,240,222)" fill-opacity="0.815686" />
<polygon points="140,117 137,105 141,119" id="148" fill="rgb(186,227,219)" fill-opacity="0.815686" />
<polygon points="106,115 99,107 102,118" id="149" fill="rgb(213,252,219)" fill-opacity="0.815686" />
<polygon points="155,81 151,80 176,95" id="150" fill="rgb(56,42,53)" fill-opacity="0.815686" />
<polygon points="207,143 217,144 198,133" id="151" fill="rgb(138,194,205)" fill-opacity="0.815686" />
<polygon points="190,25 125,41 155,81" id="152" fill="rgb(42,43,48)" fill-opacity="0.815686" />
<polygon points="110,74 139,61 141,65" id="153" fill="rgb(55,43,56)" fill-opacity="0.815686" />
<polygon points="192,123 214,133 194,126" id="154" fill="rgb(91,66,78)" fill-opacity="0.815686" />
<polygon points="180,104 197,122 231,144" id="155" fill="rgb(50,45,52)" fill-opacity="0.815686" />
<polygon points="118,89 97,117 135,75" id="156" fill="rgb(206,242,211)" fill-opacity="0.815686" />
<polygon points="42,172 0,140 70,172" id="157" fill="rgb(42,43,48)" fill-opacity="0.815686" />
<polygon points="94,134 88,112 95,116" id="158" fill="rgb(192,241,224)" fill-opacity="0.815686" />
<polygon points="65,113 60,128 51,126" id="159" fill="rgb(28,35,123)" fill-opacity="0.815686" />
<polygon points="174,135 178,129 171,110" id="160" fill="rgb(150,203,217)" fill-opacity="0.815686" />
<polygon points="28,158 9,133 29,153" id="161" fill="rgb(42,43,53)" fill-opacity="0.815686" />
<polygon points="136,110 126,89 143,124" id="162" fill="rgb(212,250,224)" fill-opacity="0.815686" />
<polygon points="104,48 226,89 108,55" id="163" fill="rgb(42,43,48)" fill-opacity="0.815686" />
<polygon points="74,138 66,133 69,149" id="164" fill="rgb(44,90,190)" fill-opacity="0.815686" />
<polygon points="234,105 251,160 173,93" id="165" fill="rgb(42,43,48)" fill-opacity="0.815686" />
<polygon points="117,75 185,4 83,99" id="166" fill="rgb(43,43,48)" fill-opacity="0.815686" />
</svg>