<?xml version="1.0" standalone="no"?>
<svg xmlns="http://www.w3.org/2000/svg" version="1.2" baseProfile="tiny" width="256" height="144" viewBox="0 0 256 144">
<rect x="0" y="0" width="256" height="144" id="0" fill="rgb(62,72,85)" fill-opacity="1" />
<polygon points="46,118 136,42 211,118" id="1" fill="rgb(161,214,236)" fill-opacity="0.815686" />
<polygon points="177,98 207,127 5,117" id="2" fill="rgb(57,103,195)" fill-opacity="0.815686" />
<polygon points="256,142 87,0 256,0" id="3" fill="rgb(38,36,40)" fill-opacity="0.815686" />
<polygon points="63,90 143,53 211,112" id="4" fill="rgb(188,229,210)" fill-opacity="0.815686" />
<polygon points="0,141 167,0 0,0" id="5" fill="rgb(39,37,43)" fill-opacity="0.815686" />
<polygon points="82,74 23,112 54,130" id="6" fill="rgb(42,61,154)" fill-opacity="0.815686" />
<polygon points="0,121 256,142 0,144" id="7" fill="rgb(37,37,45)" fill-opacity="0.815686" />
<polygon points="133,39 78,117 139,82" id="8" fill="rgb(199,241,217)" fill-opacity="0.815686" />
<polygon points="256,144 8,144 256,118" id="9" fill="rgb(41,42,50)" fill-opacity="0.815686" />
<polygon points="96,77 122,55 65,86" id="10" fill="rgb(121,120,129)" fill-opacity="0.815686" />
<polygon points="225,122 148,116 157,97" id="11" fill="rgb(70,119,199)" fill-opacity="0.815686" />
<polygon points="75,78 63,95 104,124" id="12" fill="rgb(122,186,220)" fill-opacity="0.815686" />
<polygon points="182,118 82,126 226,125" id="13" fill="rgb(44,70,139)" fill-opacity="0.815686" />
<polygon points="147,106 139,39 134,71" id="14" fill="rgb(134,173,190)" fill-opacity="0.815686" />
<polygon points="137,41 145,54 223,125" id="15" fill="rgb(136,126,126)" fill-opacity="0.815686" />
<polygon points="48,104 36,120 105,127" id="16" fill="rgb(31,59,168)" fill-opacity="0.815686" />
<polygon points="101,93 139,111 148,105" id="17" fill="rgb(120,188,235)" fill-opacity="0.815686" />
<polygon points="79,73 0,140 54,80" id="18" fill="rgb(62,50,76)" fill-opacity="0.815686" />
<polygon points="168,106 222,120 209,107" id="19" fill="rgb(126,184,215)" fill-opacity="0.815686" />
<polygon points="70,98 77,117 114,103" id="20" fill="rgb(141,205,229)" fill-opacity="0.815686" />
<polygon points="112,95 146,123 90,118" id="21" fill="rgb(66,123,219)" fill-opacity="0.815686" />
<polygon points="87,74 186,0 11,0" id="22" fill="rgb(43,43,48)" fill-opacity="0.815686" />
<polygon points="126,54 87,99 141,90" id="23" fill="rgb(209,248,219)" fill-opacity="0.815686" />
<polygon points="112,111 116,106 175,120" id="24" fill="rgb(41,80,195)" fill-opacity="0.815686" />
<polygon points="61,120 75,107 68,102" id="25" fill="rgb(60,114,208)" fill-opacity="0.815686" />
<polygon points="155,88 138,48 174,98" id="26" fill="rgb(221,251,219)" fill-opacity="0.815686" />
<polygon points="172,112 138,117 170,95" id="27" fill="rgb(61,107,201)" fill-opacity="0.815686" />
<polygon points="76,81 113,71 88,88" id="28" fill="rgb(177,215,194)" fill-opacity="0.815686" />
<polygon points="147,51 218,115 129,31" id="29" fill="rgb(91,51,73)" fill-opacity="0.815686" />
<polygon points="31,126 20,117 148,133" id="30" fill="rgb(38,48,103)" fill-opacity="0.815686" />
<polygon points="54,104 54,125 66,96" id="31" fill="rgb(17,26,143)" fill-opacity="0.815686" />
<polygon points="93,120 103,106 124,122" id="32" fill="rgb(88,153,230)" fill-opacity="0.815686" />
<polygon points="195,103 177,107 159,64" id="33" fill="rgb(165,208,196)" fill-opacity="0.815686" />
<polygon points="150,100 171,95 97,93" id="34" fill="rgb(198,246,221)" fill-opacity="0.815686" />
<polygon points="24,124 45,0 0,141" id="35" fill="rgb(42,43,47)" fill-opacity="0.815686" />
<polygon points="199,129 230,126 225,118" id="36" fill="rgb(48,60,84)" fill-opacity="0.815686" />
<polygon points="134,99 114,68 131,55" id="37" fill="rgb(221,255,221)" fill-opacity="0.815686" />
<polygon points="104,71 91,74 126,42" id="38" fill="rgb(99,52,82)" fill-opacity="0.815686" />
<polygon points="192,97 185,90 227,119" id="39" fill="rgb(115,104,117)" fill-opacity="0.815686" />
<polygon points="78,89 75,77 64,84" id="40" fill="rgb(83,121,167)" fill-opacity="0.815686" />
<polygon points="98,106 115,94 83,81" id="41" fill="rgb(186,238,222)" fill-opacity="0.815686" />
<polygon points="240,122 256,144 125,144" id="42" fill="rgb(41,42,47)" fill-opacity="0.815686" />
<polygon points="73,80 96,72 76,75" id="43" fill="rgb(105,113,104)" fill-opacity="0.815686" />
<polygon points="197,115 183,114 177,124" id="44" fill="rgb(40,76,162)" fill-opacity="0.815686" />
<polygon points="114,73 105,79 118,82" id="45" fill="rgb(168,202,211)" fill-opacity="0.815686" />
<polygon points="136,121 93,121 118,130" id="46" fill="rgb(51,90,171)" fill-opacity="0.815686" />
<polygon points="138,126 195,126 92,133" id="47" fill="rgb(43,55,90)" fill-opacity="0.815686" />
<polygon points="136,11 0,130 0,0" id="48" fill="rgb(42,43,48)" fill-opacity="0.815686" />
<polygon points="175,79 200,101 147,44" id="49" fill="rgb(83,49,67)" fill-opacity="0.815686" />
<polygon points="176,107 173,91 201,109" id="50" fill="rgb(162,222,223)" fill-opacity="0.815686" />
<polygon points="138,41 144,56 126,43" id="51" fill="rgb(147,168,153)" fill-opacity="0.815686" />
<polygon points="113,53 112,64 130,41" id="52" fill="rgb(59,57,89)" fill-opacity="0.815686" />
<polygon points="92,144 132,129 159,130" id="53" fill="rgb(42,43,49)" fill-opacity="0.815686" />
<polygon points="132,32 194,93 240,127" id="54" fill="rgb(60,47,58)" fill-opacity="0.815686" />
<polygon points="126,43 85,74 102,67" id="55" fill="rgb(77,45,62)" fill-opacity="0.815686" />
<polygon points="127,99 145,93 99,83" id="56" fill="rgb(209,252,220)" fill-opacity="0.815686" />
<polygon points="98,123 91,120 107,111" id="57" fill="rgb(98,174,231)" fill-opacity="0.815686" />
<polygon points="94,68 97,73 71,74" id="58" fill="rgb(73,51,60)" fill-opacity="0.815686" />
<polygon points="69,126 24,127 103,132" id="59" fill="rgb(40,44,71)" fill-opacity="0.815686" />
<polygon points="170,93 159,95 155,68" id="60" fill="rgb(222,255,223)" fill-opacity="0.815686" />
<polygon points="136,37 169,70 150,56" id="61" fill="rgb(97,45,74)" fill-opacity="0.815686" />
<polygon points="89,64 22,117 32,102" id="62" fill="rgb(68,53,79)" fill-opacity="0.815686" />
<polygon points="140,101 131,108 154,105" id="63" fill="rgb(116,173,228)" fill-opacity="0.815686" />
<polygon points="214,124 221,120 107,128" id="64" fill="rgb(52,74,123)" fill-opacity="0.815686" />
<polygon points="100,129 138,124 59,122" id="65" fill="rgb(37,60,141)" fill-opacity="0.815686" />
<polygon points="158,126 176,129 204,126" id="66" fill="rgb(47,62,98)" fill-opacity="0.815686" />
<polygon points="208,120 193,119 183,107" id="67" fill="rgb(75,136,200)" fill-opacity="0.815686" />
<polygon points="78,114 90,115 80,98" id="68" fill="rgb(147,209,230)" fill-opacity="0.815686" />
<polygon points="143,84 138,52 133,54" id="69" fill="rgb(127,172,189)" fill-opacity="0.815686" />
<polygon points="141,49 149,89 145,101" id="70" fill="rgb(150,194,198)" fill-opacity="0.815686" />
<polygon points="52,123 60,86 63,105" id="71" fill="rgb(21,29,139)" fill-opacity="0.815686" />
<polygon points="162,73 211,118 153,60" id="72" fill="rgb(167,199,173)" fill-opacity="0.815686" />
<polygon points="22,121 69,79 64,87" id="73" fill="rgb(37,40,105)" fill-opacity="0.815686" />
<polygon points="101,74 72,80 76,81" id="74" fill="rgb(134,170,156)" fill-opacity="0.815686" />
<polygon points="88,71 156,19 59,74" id="75" fill="rgb(46,42,49)" fill-opacity="0.815686" />
<polygon points="176,92 173,107 163,73" id="76" fill="rgb(151,202,211)" fill-opacity="0.815686" />
<polygon points="116,62 109,82 100,84" id="77" fill="rgb(205,242,211)" fill-opacity="0.815686" />
<polygon points="82,84 94,102 70,100" id="78" fill="rgb(148,206,219)" fill-opacity="0.815686" />
<polygon points="143,125 155,112 174,105" id="79" fill="rgb(46,81,179)" fill-opacity="0.815686" />
<polygon points="145,122 120,120 154,105" id="80" fill="rgb(63,111,208)" fill-opacity="0.815686" />
<polygon points="142,0 177,78 236,116" id="81" fill="rgb(42,43,48)" fill-opacity="0.815686" />
<polygon points="41,122 58,100 35,109" id="82" fill="rgb(43,68,177)" fill-opacity="0.815686" />
<polygon points="205,101 228,125 218,117" id="83" fill="rgb(96,103,126)" fill-opacity="0.815686" />
<polygon points="191,114 187,111 180,116" id="84" fill="rgb(33,69,166)" fill-opacity="0.815686" />
<polygon points="49,141 0,96 0,144" id="85" fill="rgb(42,43,48)" fill-opacity="0.815686" />
<polygon points="121,98 144,91 109,87" id="86" fill="rgb(211,251,220)" fill-opacity="0.815686" />
<polygon points="184,84 228,117 215,109" id="87" fill="rgb(74,59,74)" fill-opacity="0.815686" />
<polygon points="135,104 121,85 108,88" id="88" fill="rgb(206,251,220)" fill-opacity="0.815686" />
<polygon points="218,128 231,116 233,123" id="89" fill="rgb(45,50,64)" fill-opacity="0.815686" />
<polygon points="63,78 42,96 47,95" id="90" fill="rgb(87,53,67)" fill-opacity="0.815686" />
<polygon points="217,115 211,120 191,97" id="91" fill="rgb(134,183,189)" fill-opacity="0.815686" />
<polygon points="148,96 177,94 181,89" id="92" fill="rgb(203,244,218)" fill-opacity="0.815686" />
<polygon points="122,104 116,105 130,116" id="93" fill="rgb(31,64,195)" fill-opacity="0.815686" />
<polygon points="145,78 137,65 136,45" id="94" fill="rgb(121,166,185)" fill-opacity="0.815686" />
<polygon points="32,119 44,97 25,122" id="95" fill="rgb(39,41,99)" fill-opacity="0.815686" />
<polygon points="103,130 50,122 97,127" id="96" fill="rgb(37,49,114)" fill-opacity="0.815686" />
<polygon points="159,71 147,76 161,93" id="97" fill="rgb(224,255,223)" fill-opacity="0.815686" />
<polygon points="155,47 129,36 129,38" id="98" fill="rgb(72,52,68)" fill-opacity="0.815686" />
<polygon points="99,122 122,119 112,121" id="99" fill="rgb(75,129,217)" fill-opacity="0.815686" />
<polygon points="96,83 108,85 101,76" id="100" fill="rgb(207,243,210)" fill-opacity="0.815686" />
<polygon points="136,127 127,130 179,130" id="101" fill="rgb(42,48,70)" fill-opacity="0.815686" />
<polygon points="210,40 135,24 154,55" id="102" fill="rgb(42,43,48)" fill-opacity="0.815686" />
<polygon points="135,104 136,86 132,103" id="103" fill="rgb(197,249,225)" fill-opacity="0.815686" />
<polygon points="183,108 168,107 167,116" id="104" fill="rgb(86,130,213)" fill-opacity="0.815686" />
</svg>